P3
64 64
255
0 0 0 0 0 0 0 0 0 0 0 0 0 0 0 0 0 0 0 0 0 0 0 0 0 0 0 0 0 0 0 0 0 0 0 0 0 0 0 0 0 0 0 0 0 0 0 0 0 0 0 0 0 0 0 0 0 0 0 0 0 0 0 0 0 0 0 0 0 0 0 0 0 0 0 0 0 0 0 0 0 0 0 0 0 0 0 0 0 0 0 0 0 141 141 141 171 171 171 128 128 128 150 150 150 147 147 147 175 175 175 145 145 145 137 137 137 162 162 162 141 141 141 148 148 148 155 155 155 0 0 0 0 0 0 0 0 0 0 0 0 0 0 0 0 0 0 0 0 0 178 178 178 141 141 141 175 175 175 145 145 145 157 157 157 0 0 0 0 0 0 117 117 117 0 0 0 0 0 0 0 0 0 0 0 0 0 0 0 0 0 0 
0 0 0 0 0 0 0 0 0 0 0 0 0 0 0 0 0 0 0 0 0 0 0 0 0 0 0 0 0 0 0 0 0 0 0 0 0 0 0 5 5 5 146 146 146 172 172 172 177 177 177 176 176 176 153 153 153 176 176 176 178 178 178 178 178 178 175 175 175 177 177 177 128 128 128 150 150 150 165 165 165 152 152 152 164 164 164 166 166 166 168 168 168 116 116 116 99 99 99 94 94 94 123 123 123 122 122 122 122 122 122 120 120 120 114 114 114 152 152 152 90 90 90 127 127 127 156 156 156 132 132 132 0 0 0 0 0 0 0 0 0 0 0 0 178 178 178 165 165 165 167 167 167 134 134 134 152 152 152 146 146 146 131 131 131 0 0 0 0 0 0 99 99 99 5 5 5 0 0 0 0 0 0 0 0 0 0 0 0 0 0 0 
0 0 0 0 0 0 0 0 0 0 0 0 178 178 178 178 178 178 178 178 178 178 178 178 131 131 131 144 144 144 167 167 167 175 175 175 169 169 169 168 168 168 138 138 138 152 152 152 166 166 166 170 170 170 111 111 111 163 163 163 172 172 172 177 177 177 160 160 160 166 166 166 174 174 174 173 173 173 162 162 162 156 156 156 105 105 105 165 165 165 139 139 139 99 99 99 161 161 161 152 152 152 148 148 148 162 162 162 135 135 135 140 140 140 134 134 134 171 171 171 164 164 164 123 123 123 150 150 150 146 146 146 0 0 0 0 0 0 0 0 0 0 0 0 178 178 178 176 176 176 148 148 148 166 166 166 170 170 170 174 174 174 166 166 166 5 5 5 178 178 178 160 160 160 178 178 178 0 0 0 0 0 0 0 0 0 0 0 0 0 0 0 
0 0 0 0 0 0 0 0 0 0 0 0 178 178 178 178 178 178 164 164 164 165 165 165 175 175 175 163 163 163 127 127 127 131 131 131 176 176 176 172 172 172 145 145 145 162 162 162 140 140 140 157 157 157 164 164 164 150 150 150 157 157 157 158 158 158 156 156 156 155 155 155 150 150 150 149 149 149 161 161 161 131 131 131 172 172 172 178 178 178 173 173 173 159 159 159 178 178 178 164 164 164 127 127 127 123 123 123 174 174 174 178 178 178 174 174 174 140 140 140 142 142 142 177 177 177 154 154 154 96 96 96 0 0 0 0 0 0 0 0 0 0 0 0 173 173 173 173 173 173 171 171 171 167 167 167 148 148 148 161 161 161 150 150 150 130 130 130 172 172 172 176 176 176 178 178 178 0 0 0 0 0 0 0 0 0 0 0 0 0 0 0 
0 0 0 0 0 0 0 0 0 0 0 0 178 178 178 178 178 178 163 163 163 164 164 164 176 176 176 176 176 176 67 67 67 150 150 150 166 166 166 90 90 90 101 101 101 144 144 144 139 139 139 140 140 140 90 90 90 78 78 78 109 109 109 122 122 122 123 123 123 147 147 147 175 175 175 172 172 172 145 145 145 164 164 164 175 175 175 163 163 163 125 125 125 163 163 163 159 159 159 161 161 161 172 172 172 168 168 168 150 150 150 156 156 156 110 110 110 129 129 129 129 129 129 158 158 158 163 163 163 172 172 172 164 164 164 0 0 0 0 0 0 0 0 0 144 144 144 144 144 144 175 175 175 171 171 171 148 148 148 148 148 148 90 90 90 96 96 96 163 163 163 142 142 142 159 159 159 0 0 0 0 0 0 0 0 0 0 0 0 0 0 0 
0 0 0 0 0 0 0 0 0 0 0 0 178 178 178 162 162 162 134 134 134 172 172 172 120 120 120 135 135 135 127 127 127 173 173 173 170 170 170 84 84 84 118 118 118 172 172 172 164 164 164 136 136 136 80 80 80 115 115 115 58 58 58 11 11 11 110 110 110 155 155 155 128 128 128 160 160 160 176 176 176 123 123 123 92 92 92 87 87 87 5 5 5 159 159 159 146 146 146 110 110 110 168 168 168 127 127 127 123 123 123 162 162 162 151 151 151 147 147 147 70 70 70 159 159 159 168 168 168 155 155 155 83 83 83 0 0 0 0 0 0 0 0 0 144 144 144 135 135 135 172 172 172 131 131 131 137 137 137 178 178 178 178 178 178 173 173 173 117 117 117 120 120 120 176 176 176 0 0 0 0 0 0 0 0 0 0 0 0 0 0 0 
0 0 0 0 0 0 0 0 0 5 5 5 176 176 176 168 168 168 142 142 142 134 134 134 148 148 148 164 164 164 176 176 176 150 150 150 115 115 115 116 116 116 139 139 139 176 176 176 177 177 177 137 137 137 84 84 84 118 118 118 94 94 94 91 91 91 62 62 62 115 115 115 153 153 153 171 171 171 178 178 178 153 153 153 76 76 76 24 24 24 30 30 30 125 125 125 119 119 119 164 164 164 79 79 79 59 59 59 171 171 171 175 175 175 175 175 175 89 89 89 108 108 108 172 172 172 177 177 177 156 156 156 68 68 68 5 5 5 0 0 0 0 0 0 177 177 177 145 145 145 176 176 176 154 154 154 152 152 152 178 178 178 162 162 162 145 145 145 130 130 130 132 132 132 174 174 174 0 0 0 0 0 0 0 0 0 0 0 0 0 0 0 
0 0 0 0 0 0 0 0 0 176 176 176 157 157 157 173 173 173 121 121 121 100 100 100 98 98 98 131 131 131 178 178 178 173 173 173 147 147 147 153 153 153 146 146 146 165 165 165 157 157 157 168 168 168 150 150 150 142 142 142 65 65 65 162 162 162 137 137 137 176 176 176 148 148 148 117 117 117 169 169 169 175 175 175 161 161 161 159 159 159 165 165 165 162 162 162 145 145 145 178 178 178 162 162 162 94 94 94 150 150 150 138 138 138 100 100 100 88 88 88 125 125 125 167 167 167 169 169 169 147 147 147 21 21 21 79 79 79 0 0 0 0 0 0 178 178 178 167 167 167 174 174 174 173 173 173 130 130 130 167 167 167 129 129 129 58 58 58 169 169 169 173 173 173 155 155 155 5 5 5 0 0 0 0 0 0 0 0 0 0 0 0 
0 0 0 0 0 0 0 0 0 178 178 178 170 170 170 148 148 148 161 161 161 153 153 153 80 80 80 161 161 161 144 144 144 113 113 113 133 133 133 147 147 147 158 158 158 147 147 147 161 161 161 157 157 157 174 174 174 154 154 154 63 63 63 167 167 167 120 120 120 156 156 156 95 95 95 131 131 131 133 133 133 155 155 155 110 110 110 134 134 134 165 165 165 132 132 132 160 160 160 148 148 148 175 175 175 164 164 164 175 175 175 168 168 168 140 140 140 134 134 134 178 178 178 170 170 170 113 113 113 168 168 168 112 112 112 83 83 83 0 0 0 0 0 0 178 178 178 174 174 174 175 175 175 168 168 168 178 178 178 166 166 166 151 151 151 135 135 135 156 156 156 178 178 178 130 130 130 85 85 85 0 0 0 0 0 0 0 0 0 0 0 0 
0 0 0 0 0 0 0 0 0 157 157 157 163 163 163 166 166 166 151 151 151 141 141 141 114 114 114 147 147 147 119 119 119 44 44 44 123 123 123 167 167 167 175 175 175 169 169 169 174 174 174 161 161 161 166 166 166 164 164 164 169 169 169 171 171 171 142 142 142 169 169 169 167 167 167 112 112 112 55 55 55 72 72 72 150 150 150 63 63 63 133 133 133 165 165 165 163 163 163 135 135 135 171 171 171 165 165 165 159 159 159 163 163 163 167 167 167 120 120 120 129 129 129 126 126 126 31 31 31 152 152 152 169 169 169 83 83 83 91 91 91 0 0 0 178 178 178 172 172 172 173 173 173 164 164 164 155 155 155 74 74 74 149 149 149 153 153 153 125 125 125 81 81 81 47 47 47 54 54 54 0 0 0 0 0 0 0 0 0 0 0 0 
0 0 0 0 0 0 0 0 0 128 128 128 134 134 134 137 137 137 86 86 86 153 153 153 145 145 145 142 142 142 141 141 141 51 51 51 125 125 125 177 177 177 178 178 178 176 176 176 174 174 174 169 169 169 176 176 176 176 176 176 157 157 157 152 152 152 73 73 73 116 116 116 139 139 139 61 61 61 36 36 36 107 107 107 141 141 141 119 119 119 161 161 161 174 174 174 177 177 177 169 169 169 166 166 166 169 169 169 133 133 133 163 163 163 177 177 177 170 170 170 77 77 77 64 64 64 62 62 62 114 114 114 170 170 170 75 75 75 90 90 90 0 0 0 177 177 177 169 169 169 177 177 177 176 176 176 168 168 168 139 139 139 161 161 161 178 178 178 165 165 165 82 82 82 22 22 22 32 32 32 0 0 0 0 0 0 0 0 0 0 0 0 
0 0 0 0 0 0 0 0 0 159 159 159 157 157 157 160 160 160 115 115 115 155 155 155 130 130 130 120 120 120 103 103 103 82 82 82 174 174 174 145 145 145 173 173 173 152 152 152 169 169 169 166 166 166 177 177 177 178 178 178 171 171 171 148 148 148 98 98 98 82 82 82 169 169 169 76 76 76 126 126 126 168 168 168 164 164 164 158 158 158 149 149 149 138 138 138 160 160 160 153 153 153 131 131 131 166 166 166 165 165 165 170 170 170 177 177 177 167 167 167 146 146 146 34 34 34 39 39 39 165 165 165 163 163 163 106 106 106 80 80 80 0 0 0 160 160 160 144 144 144 152 152 152 138 138 138 174 174 174 154 154 154 101 101 101 160 160 160 102 102 102 145 145 145 83 83 83 90 90 90 0 0 0 0 0 0 0 0 0 0 0 0 
0 0 0 0 0 0 0 0 0 177 177 177 174 174 174 171 171 171 110 110 110 116 116 116 174 174 174 131 131 131 119 119 119 159 159 159 168 168 168 107 107 107 149 149 149 173 173 173 166 166 166 113 113 113 123 123 123 159 159 159 167 167 167 157 157 157 130 130 130 80 80 80 158 158 158 66 66 66 142 142 142 143 143 143 164 164 164 155 155 155 177 177 177 176 176 176 178 178 178 165 165 165 109 109 109 152 152 152 80 80 80 138 138 138 158 158 158 134 134 134 151 151 151 113 113 113 115 115 115 73 73 73 122 122 122 156 156 156 94 94 94 134 134 134 176 176 176 177 177 177 171 171 171 126 126 126 169 169 169 105 105 105 79 79 79 145 145 145 112 112 112 175 175 175 154 154 154 69 69 69 5 5 5 0 0 0 0 0 0 0 0 0 
0 0 0 0 0 0 132 132 132 158 158 158 154 154 154 172 172 172 101 101 101 91 91 91 158 158 158 164 164 164 154 154 154 174 174 174 155 155 155 131 131 131 155 155 155 178 178 178 135 135 135 154 154 154 153 153 153 173 173 173 171 171 171 170 170 170 99 99 99 56 56 56 154 154 154 141 141 141 135 135 135 80 80 80 105 105 105 88 88 88 163 163 163 148 148 148 175 175 175 174 174 174 177 177 177 174 174 174 166 166 166 157 157 157 154 154 154 113 113 113 163 163 163 163 163 163 97 97 97 33 33 33 86 86 86 145 145 145 106 106 106 136 136 136 177 177 177 160 160 160 176 176 176 177 177 177 165 165 165 173 173 173 142 142 142 125 125 125 162 162 162 173 173 173 166 166 166 87 87 87 46 46 46 0 0 0 0 0 0 0 0 0 
0 0 0 0 0 0 178 178 178 178 178 178 127 127 127 171 171 171 141 141 141 163 163 163 124 124 124 150 150 150 149 149 149 169 169 169 165 165 165 172 172 172 168 168 168 178 178 178 139 139 139 170 170 170 163 163 163 177 177 177 145 145 145 128 128 128 81 81 81 155 155 155 178 178 178 175 175 175 142 142 142 106 106 106 173 173 173 173 173 173 161 161 161 176 176 176 153 153 153 153 153 153 176 176 176 152 152 152 173 173 173 178 178 178 167 167 167 132 132 132 164 164 164 139 139 139 60 60 60 25 25 25 19 19 19 159 159 159 145 145 145 155 155 155 164 164 164 83 83 83 166 166 166 177 177 177 161 161 161 131 131 131 170 170 170 167 167 167 172 172 172 160 160 160 164 164 164 167 167 167 152 152 152 0 0 0 0 0 0 0 0 0 
0 0 0 0 0 0 178 178 178 145 145 145 126 126 126 161 161 161 120 120 120 111 111 111 164 164 164 158 158 158 146 146 146 170 170 170 176 176 176 138 138 138 153 153 153 178 178 178 176 176 176 178 178 178 157 157 157 174 174 174 175 175 175 171 171 171 144 144 144 130 130 130 104 104 104 126 126 126 84 84 84 159 159 159 178 178 178 158 158 158 156 156 156 177 177 177 119 119 119 144 144 144 177 177 177 177 177 177 178 178 178 171 171 171 168 168 168 177 177 177 175 175 175 136 136 136 109 109 109 75 75 75 112 112 112 177 177 177 138 138 138 172 172 172 112 112 112 111 111 111 167 167 167 177 177 177 167 167 167 126 126 126 160 160 160 176 176 176 178 178 178 172 172 172 154 154 154 177 177 177 178 178 178 0 0 0 0 0 0 0 0 0 
0 0 0 0 0 0 175 175 175 173 173 173 174 174 174 140 140 140 21 21 21 24 24 24 134 134 134 121 121 121 143 143 143 172 172 172 153 153 153 168 168 168 142 142 142 172 172 172 178 178 178 158 158 158 88 88 88 147 147 147 127 127 127 155 155 155 62 62 62 18 18 18 114 114 114 167 167 167 157 157 157 175 175 175 167 167 167 167 167 167 166 166 166 172 172 172 132 132 132 135 135 135 175 175 175 178 178 178 176 176 176 170 170 170 152 152 152 174 174 174 156 156 156 138 138 138 162 162 162 122 122 122 76 76 76 157 157 157 174 174 174 171 171 171 142 142 142 153 153 153 168 168 168 176 176 176 169 169 169 178 178 178 165 165 165 178 178 178 171 171 171 135 135 135 175 175 175 177 177 177 175 175 175 0 0 0 0 0 0 0 0 0 
0 0 0 0 0 0 165 165 165 162 162 162 175 175 175 96 96 96 71 71 71 157 157 157 156 156 156 159 159 159 127 127 127 161 161 161 169 169 169 175 175 175 176 176 176 138 138 138 158 158 158 169 169 169 124 124 124 169 169 169 113 113 113 154 154 154 167 167 167 71 71 71 162 162 162 163 163 163 175 175 175 152 152 152 140 140 140 144 144 144 171 171 171 173 173 173 162 162 162 153 153 153 169 169 169 167 167 167 168 168 168 152 152 152 159 159 159 167 167 167 101 101 101 144 144 144 174 174 174 115 115 115 26 26 26 155 155 155 170 170 170 177 177 177 160 160 160 5 5 5 0 0 0 0 0 0 176 176 176 178 178 178 112 112 112 159 159 159 159 159 159 146 146 146 165 165 165 155 155 155 166 166 166 0 0 0 0 0 0 0 0 0 
0 0 0 0 0 0 172 172 172 177 177 177 163 163 163 84 84 84 107 107 107 164 164 164 116 116 116 139 139 139 94 94 94 141 141 141 176 176 176 147 147 147 125 125 125 137 137 137 113 113 113 175 175 175 171 171 171 138 138 138 85 85 85 159 159 159 153 153 153 109 109 109 143 143 143 143 143 143 162 162 162 123 123 123 94 94 94 136 136 136 170 170 170 177 177 177 149 149 149 162 162 162 169 169 169 139 139 139 117 117 117 177 177 177 161 161 161 139 139 139 100 100 100 139 139 139 111 111 111 74 74 74 71 71 71 170 170 170 135 135 135 157 157 157 170 170 170 163 163 163 0 0 0 0 0 0 0 0 0 0 0 0 178 178 178 156 156 156 165 165 165 174 174 174 91 91 91 151 151 151 175 175 175 0 0 0 0 0 0 0 0 0 
0 0 0 99 99 99 153 153 153 162 162 162 154 154 154 119 119 119 170 170 170 139 139 139 106 106 106 68 68 68 60 60 60 134 134 134 168 168 168 165 165 165 155 155 155 160 160 160 154 154 154 136 136 136 170 170 170 121 121 121 150 150 150 146 146 146 137 137 137 116 116 116 148 148 148 164 164 164 142 142 142 57 57 57 141 141 141 69 69 69 97 97 97 157 157 157 66 66 66 146 146 146 176 176 176 120 120 120 100 100 100 174 174 174 166 166 166 133 133 133 132 132 132 87 87 87 148 148 148 163 163 163 145 145 145 169 169 169 144 144 144 120 120 120 165 165 165 166 166 166 0 0 0 0 0 0 0 0 0 0 0 0 175 175 175 178 178 178 177 177 177 176 176 176 138 138 138 173 173 173 176 176 176 161 161 161 0 0 0 0 0 0 
0 0 0 161 161 161 164 164 164 163 163 163 160 160 160 169 169 169 165 165 165 130 130 130 69 69 69 150 150 150 169 169 169 148 148 148 133 133 133 175 175 175 158 158 158 153 153 153 175 175 175 129 129 129 177 177 177 167 167 167 119 119 119 135 135 135 158 158 158 108 108 108 87 87 87 116 116 116 142 142 142 141 141 141 167 167 167 115 115 115 116 116 116 171 171 171 167 167 167 177 177 177 176 176 176 159 159 159 171 171 171 160 160 160 168 168 168 171 171 171 176 176 176 170 170 170 168 168 168 176 176 176 177 177 177 160 160 160 165 165 165 171 171 171 174 174 174 175 175 175 148 148 148 0 0 0 0 0 0 0 0 0 154 154 154 176 176 176 178 178 178 170 170 170 160 160 160 149 149 149 163 163 163 153 153 153 0 0 0 0 0 0 
0 0 0 178 178 178 178 178 178 171 171 171 122 122 122 56 56 56 82 82 82 79 79 79 117 117 117 166 166 166 103 103 103 45 45 45 122 122 122 131 131 131 137 137 137 174 174 174 168 168 168 165 165 165 175 175 175 136 136 136 133 133 133 132 132 132 178 178 178 157 157 157 126 126 126 148 148 148 160 160 160 82 82 82 94 94 94 87 87 87 134 134 134 129 129 129 173 173 173 170 170 170 178 178 178 176 176 176 177 177 177 161 161 161 159 159 159 164 164 164 113 113 113 159 159 159 162 162 162 174 174 174 177 177 177 157 157 157 156 156 156 178 178 178 178 178 178 158 158 158 129 129 129 0 0 0 0 0 0 0 0 0 175 175 175 178 178 178 173 173 173 174 174 174 132 132 132 166 166 166 156 156 156 151 151 151 0 0 0 0 0 0 
0 0 0 178 178 178 169 169 169 166 166 166 148 148 148 147 147 147 151 151 151 178 178 178 133 133 133 77 77 77 105 105 105 25 25 25 122 122 122 147 147 147 164 164 164 172 172 172 171 171 171 175 175 175 171 171 171 148 148 148 136 136 136 133 133 133 145 145 145 170 170 170 159 159 159 135 135 135 160 160 160 131 131 131 99 99 99 136 136 136 169 169 169 168 168 168 159 159 159 162 162 162 163 163 163 169 169 169 172 172 172 144 144 144 175 175 175 166 166 166 116 116 116 133 133 133 173 173 173 174 174 174 165 165 165 165 165 165 171 171 171 173 173 173 173 173 173 177 177 177 178 178 178 0 0 0 0 0 0 0 0 0 177 177 177 175 175 175 166 166 166 173 173 173 175 175 175 162 162 162 151 151 151 169 169 169 0 0 0 0 0 0 
0 0 0 177 177 177 118 118 118 122 122 122 145 145 145 118 118 118 160 160 160 178 178 178 166 166 166 81 81 81 84 84 84 137 137 137 171 171 171 138 138 138 170 170 170 156 156 156 167 167 167 170 170 170 136 136 136 62 62 62 148 148 148 162 162 162 55 55 55 132 132 132 159 159 159 133 133 133 133 133 133 169 169 169 143 143 143 148 148 148 173 173 173 163 163 163 131 131 131 161 161 161 169 169 169 133 133 133 148 148 148 156 156 156 175 175 175 162 162 162 169 169 169 176 176 176 140 140 140 101 101 101 175 175 175 163 163 163 174 174 174 167 167 167 177 177 177 174 174 174 161 161 161 116 116 116 0 0 0 0 0 0 159 159 159 146 146 146 83 83 83 123 123 123 175 175 175 161 161 161 164 164 164 175 175 175 0 0 0 0 0 0 
0 0 0 178 178 178 173 173 173 149 149 149 69 69 69 103 103 103 140 140 140 156 156 156 99 99 99 67 67 67 38 38 38 110 110 110 159 159 159 127 127 127 169 169 169 169 169 169 150 150 150 141 141 141 153 153 153 63 63 63 108 108 108 141 141 141 27 27 27 121 121 121 173 173 173 161 161 161 112 112 112 162 162 162 163 163 163 158 158 158 172 172 172 158 158 158 78 78 78 165 165 165 129 129 129 106 106 106 122 122 122 92 92 92 152 152 152 158 158 158 175 175 175 176 176 176 146 146 146 86 86 86 121 121 121 170 170 170 165 165 165 165 165 165 176 176 176 162 162 162 163 163 163 152 152 152 0 0 0 0 0 0 148 148 148 53 53 53 78 78 78 135 135 135 173 173 173 174 174 174 176 176 176 154 154 154 0 0 0 0 0 0 
134 134 134 171 171 171 170 170 170 165 165 165 119 119 119 49 49 49 44 44 44 32 32 32 60 60 60 125 125 125 147 147 147 85 85 85 92 92 92 83 83 83 151 151 151 132 132 132 112 112 112 147 147 147 140 140 140 157 157 157 122 122 122 147 147 147 146 146 146 166 166 166 174 174 174 157 157 157 119 119 119 153 153 153 174 174 174 177 177 177 173 173 173 169 169 169 159 159 159 131 131 131 118 118 118 123 123 123 149 149 149 137 137 137 170 170 170 113 113 113 77 77 77 166 166 166 176 176 176 165 165 165 170 170 170 176 176 176 165 165 165 165 165 165 178 178 178 165 165 165 162 162 162 135 135 135 5 5 5 0 0 0 176 176 176 115 115 115 44 44 44 154 154 154 146 146 146 169 169 169 161 161 161 150 150 150 0 0 0 0 0 0 
178 178 178 175 175 175 121 121 121 101 101 101 172 172 172 150 150 150 88 88 88 109 109 109 133 133 133 154 154 154 105 105 105 155 155 155 76 76 76 90 90 90 109 109 109 124 124 124 87 87 87 115 115 115 90 90 90 170 170 170 159 159 159 176 176 176 159 159 159 166 166 166 177 177 177 162 162 162 107 107 107 167 167 167 155 155 155 129 129 129 157 157 157 174 174 174 163 163 163 175 175 175 139 139 139 135 135 135 160 160 160 152 152 152 164 164 164 85 85 85 11 11 11 107 107 107 121 121 121 145 145 145 144 144 144 166 166 166 119 119 119 171 171 171 165 165 165 177 177 177 151 151 151 166 166 166 0 0 0 0 0 0 174 174 174 169 169 169 146 146 146 145 145 145 171 171 171 136 136 136 133 133 133 163 163 163 0 0 0 0 0 0 
112 112 112 122 122 122 131 131 131 153 153 153 145 145 145 162 162 162 119 119 119 117 117 117 127 127 127 88 88 88 103 103 103 59 59 59 64 64 64 120 120 120 134 134 134 116 116 116 145 145 145 164 164 164 121 121 121 178 178 178 173 173 173 165 165 165 175 175 175 167 167 167 166 166 166 168 168 168 152 152 152 178 178 178 172 172 172 139 139 139 167 167 167 178 178 178 171 171 171 157 157 157 166 166 166 165 165 165 169 169 169 151 151 151 175 175 175 168 168 168 111 111 111 94 94 94 125 125 125 177 177 177 5 5 5 0 0 0 0 0 0 0 0 0 0 0 0 0 0 0 0 0 0 0 0 0 0 0 0 0 0 0 178 178 178 171 171 171 142 142 142 126 126 126 116 116 116 133 133 133 153 153 153 172 172 172 0 0 0 0 0 0 
67 67 67 57 57 57 79 79 79 172 172 172 174 174 174 143 143 143 138 138 138 162 162 162 147 147 147 100 100 100 95 95 95 132 132 132 82 82 82 136 136 136 115 115 115 175 175 175 165 165 165 172 172 172 164 164 164 176 176 176 178 178 178 168 168 168 166 166 166 154 154 154 138 138 138 175 175 175 178 178 178 178 178 178 178 178 178 172 172 172 174 174 174 178 178 178 178 178 178 169 169 169 178 178 178 0 0 0 0 0 0 0 0 0 0 0 0 0 0 0 0 0 0 0 0 0 0 0 0 0 0 0 0 0 0 0 0 0 0 0 0 0 0 0 0 0 0 0 0 0 0 0 0 0 0 0 0 0 0 0 0 0 177 177 177 143 143 143 104 104 104 70 70 70 143 143 143 173 173 173 156 156 156 173 173 173 5 5 5 0 0 0 
141 141 141 140 140 140 67 67 67 144 144 144 127 127 127 85 85 85 153 153 153 161 161 161 146 146 146 83 83 83 54 54 54 95 95 95 103 103 103 91 91 91 141 141 141 172 172 172 161 161 161 168 168 168 172 172 172 174 174 174 165 165 165 177 177 177 162 162 162 125 125 125 162 162 162 178 178 178 0 0 0 0 0 0 0 0 0 0 0 0 0 0 0 0 0 0 0 0 0 0 0 0 0 0 0 0 0 0 0 0 0 0 0 0 0 0 0 0 0 0 0 0 0 0 0 0 0 0 0 0 0 0 0 0 0 0 0 0 0 0 0 0 0 0 0 0 0 0 0 0 0 0 0 0 0 0 0 0 0 0 0 0 178 178 178 164 164 164 151 151 151 135 135 135 120 120 120 177 177 177 176 176 176 156 156 156 5 5 5 0 0 0 
155 155 155 105 105 105 169 169 169 164 164 164 170 170 170 152 152 152 93 93 93 90 90 90 108 108 108 126 126 126 84 84 84 149 149 149 172 172 172 144 144 144 141 141 141 175 175 175 178 178 178 177 177 177 178 178 178 178 178 178 173 173 173 172 172 172 172 172 172 177 177 177 175 175 175 177 177 177 177 177 177 173 173 173 164 164 164 169 169 169 177 177 177 125 125 125 133 133 133 121 121 121 148 148 148 168 168 168 152 152 152 153 153 153 156 156 156 170 170 170 107 107 107 161 161 161 157 157 157 168 168 168 175 175 175 0 0 0 0 0 0 0 0 0 0 0 0 0 0 0 0 0 0 0 0 0 0 0 0 0 0 0 160 160 160 149 149 149 175 175 175 140 140 140 167 167 167 169 169 169 174 174 174 174 174 174 5 5 5 0 0 0 
168 168 168 114 114 114 122 122 122 162 162 162 178 178 178 172 172 172 157 157 157 178 178 178 178 178 178 156 156 156 175 175 175 177 177 177 166 166 166 170 170 170 153 153 153 175 175 175 159 159 159 160 160 160 166 166 166 166 166 166 157 157 157 155 155 155 177 177 177 153 153 153 161 161 161 165 165 165 167 167 167 161 161 161 170 170 170 166 166 166 173 173 173 139 139 139 159 159 159 158 158 158 174 174 174 169 169 169 173 173 173 142 142 142 141 141 141 176 176 176 161 161 161 164 164 164 155 155 155 169 169 169 178 178 178 178 178 178 176 176 176 178 178 178 176 176 176 174 174 174 147 147 147 164 164 164 0 0 0 0 0 0 148 148 148 170 170 170 177 177 177 167 167 167 149 149 149 166 166 166 151 151 151 124 124 124 113 113 113 0 0 0 
71 71 71 75 75 75 158 158 158 178 178 178 178 178 178 178 178 178 178 178 178 178 178 178 176 176 176 163 163 163 149 149 149 175 175 175 177 177 177 174 174 174 172 172 172 169 169 169 176 176 176 178 178 178 175 175 175 158 158 158 122 122 122 130 130 130 162 162 162 164 164 164 166 166 166 171 171 171 168 168 168 167 167 167 173 173 173 176 176 176 176 176 176 171 171 171 175 175 175 157 157 157 176 176 176 170 170 170 137 137 137 148 148 148 169 169 169 178 178 178 175 175 175 160 160 160 169 169 169 178 178 178 173 173 173 172 172 172 178 178 178 171 171 171 169 169 169 168 168 168 149 149 149 176 176 176 0 0 0 0 0 0 103 103 103 145 145 145 116 116 116 135 135 135 98 98 98 155 155 155 161 161 161 50 50 50 108 108 108 0 0 0 
66 66 66 130 130 130 178 178 178 175 175 175 164 164 164 146 146 146 158 158 158 172 172 172 175 175 175 118 118 118 108 108 108 173 173 173 178 178 178 178 178 178 178 178 178 164 164 164 175 175 175 177 177 177 171 171 171 152 152 152 140 140 140 86 86 86 126 126 126 178 178 178 151 151 151 132 132 132 150 150 150 176 176 176 166 166 166 161 161 161 178 178 178 177 177 177 167 167 167 154 154 154 172 172 172 158 158 158 168 168 168 154 154 154 121 121 121 134 134 134 135 135 135 112 112 112 174 174 174 178 178 178 160 160 160 160 160 160 177 177 177 178 178 178 0 0 0 0 0 0 0 0 0 0 0 0 0 0 0 0 0 0 159 159 159 164 164 164 153 153 153 178 178 178 150 150 150 172 172 172 158 158 158 98 98 98 141 141 141 0 0 0 
97 97 97 170 170 170 171 171 171 154 154 154 88 88 88 139 139 139 158 158 158 116 116 116 163 163 163 172 172 172 149 149 149 131 131 131 172 172 172 176 176 176 178 178 178 178 178 178 177 177 177 165 165 165 147 147 147 139 139 139 175 175 175 161 161 161 120 120 120 142 142 142 0 0 0 0 0 0 0 0 0 0 0 0 0 0 0 0 0 0 0 0 0 0 0 0 0 0 0 0 0 0 0 0 0 0 0 0 0 0 0 0 0 0 0 0 0 0 0 0 0 0 0 0 0 0 0 0 0 0 0 0 0 0 0 0 0 0 0 0 0 0 0 0 0 0 0 0 0 0 0 0 0 0 0 0 0 0 0 0 0 0 171 171 171 134 134 134 162 162 162 168 168 168 142 142 142 140 140 140 127 127 127 154 154 154 171 171 171 0 0 0 
178 178 178 178 178 178 170 170 170 174 174 174 154 154 154 146 146 146 119 119 119 51 51 51 104 104 104 177 177 177 131 131 131 105 105 105 170 170 170 148 148 148 178 178 178 178 178 178 171 171 171 131 131 131 116 116 116 152 152 152 168 168 168 169 169 169 89 89 89 138 138 138 176 176 176 159 159 159 165 165 165 178 178 178 160 160 160 173 173 173 169 169 169 159 159 159 175 175 175 0 0 0 0 0 0 0 0 0 0 0 0 0 0 0 0 0 0 0 0 0 0 0 0 0 0 0 0 0 0 0 0 0 0 0 0 0 0 0 0 0 0 0 0 0 0 0 0 0 0 0 0 0 0 0 0 0 0 0 0 0 0 0 147 147 147 117 117 117 160 160 160 153 153 153 56 56 56 82 82 82 137 137 137 172 172 172 178 178 178 0 0 0 
152 152 152 156 156 156 140 140 140 174 174 174 178 178 178 177 177 177 151 151 151 95 95 95 123 123 123 142 142 142 148 148 148 64 64 64 172 172 172 163 163 163 173 173 173 155 155 155 174 174 174 166 166 166 156 156 156 177 177 177 170 170 170 175 175 175 140 140 140 135 135 135 153 153 153 154 154 154 173 173 173 177 177 177 128 128 128 115 115 115 157 157 157 166 166 166 165 165 165 170 170 170 139 139 139 160 160 160 174 174 174 167 167 167 98 98 98 154 154 154 145 145 145 142 142 142 5 5 5 0 0 0 0 0 0 0 0 0 0 0 0 0 0 0 0 0 0 0 0 0 0 0 0 0 0 0 0 0 0 0 0 0 160 160 160 131 131 131 167 167 167 172 172 172 156 156 156 130 130 130 114 114 114 125 125 125 170 170 170 0 0 0 
114 114 114 165 165 165 140 140 140 140 140 140 171 171 171 176 176 176 145 145 145 150 150 150 121 121 121 146 146 146 170 170 170 87 87 87 171 171 171 126 126 126 156 156 156 157 157 157 170 170 170 165 165 165 168 168 168 173 173 173 175 175 175 172 172 172 163 163 163 170 170 170 171 171 171 155 155 155 169 169 169 159 159 159 158 158 158 160 160 160 169 169 169 177 177 177 125 125 125 178 178 178 169 169 169 168 168 168 140 140 140 151 151 151 86 86 86 148 148 148 164 164 164 136 136 136 105 105 105 147 147 147 126 126 126 128 128 128 168 168 168 102 102 102 159 159 159 165 165 165 142 142 142 116 116 116 0 0 0 0 0 0 138 138 138 100 100 100 145 145 145 157 157 157 142 142 142 174 174 174 167 167 167 129 129 129 149 149 149 0 0 0 
0 0 0 177 177 177 130 130 130 56 56 56 117 117 117 153 153 153 145 145 145 129 129 129 122 122 122 170 170 170 178 178 178 172 172 172 169 169 169 174 174 174 177 177 177 155 155 155 169 169 169 176 176 176 169 169 169 161 161 161 162 162 162 169 169 169 172 172 172 116 116 116 173 173 173 127 127 127 118 118 118 143 143 143 117 117 117 143 143 143 140 140 140 176 176 176 166 166 166 176 176 176 174 174 174 142 142 142 135 135 135 171 171 171 113 113 113 113 113 113 130 130 130 154 154 154 152 152 152 163 163 163 152 152 152 146 146 146 169 169 169 165 165 165 177 177 177 163 163 163 151 151 151 126 126 126 5 5 5 0 0 0 137 137 137 98 98 98 130 130 130 138 138 138 115 115 115 147 147 147 176 176 176 130 130 130 82 82 82 0 0 0 
0 0 0 176 176 176 142 142 142 87 87 87 92 92 92 106 106 106 125 125 125 143 143 143 112 112 112 152 152 152 177 177 177 178 178 178 149 149 149 178 178 178 178 178 178 173 173 173 169 169 169 163 163 163 162 162 162 158 158 158 174 174 174 134 134 134 133 133 133 148 148 148 174 174 174 147 147 147 147 147 147 165 165 165 128 128 128 156 156 156 175 175 175 133 133 133 176 176 176 166 166 166 164 164 164 172 172 172 159 159 159 177 177 177 171 171 171 150 150 150 164 164 164 171 171 171 135 135 135 119 119 119 162 162 162 142 142 142 120 120 120 175 175 175 131 131 131 137 137 137 166 166 166 174 174 174 0 0 0 0 0 0 176 176 176 166 166 166 61 61 61 113 113 113 152 152 152 149 149 149 171 171 171 149 149 149 63 63 63 0 0 0 
0 0 0 143 143 143 163 163 163 129 129 129 160 160 160 143 143 143 152 152 152 82 82 82 167 167 167 178 178 178 159 159 159 142 142 142 164 164 164 127 127 127 171 171 171 178 178 178 173 173 173 178 178 178 163 163 163 156 156 156 178 178 178 125 125 125 138 138 138 163 163 163 151 151 151 132 132 132 75 75 75 164 164 164 172 172 172 170 170 170 153 153 153 131 131 131 131 131 131 173 173 173 162 162 162 152 152 152 93 93 93 125 125 125 170 170 170 177 177 177 151 151 151 162 162 162 134 134 134 138 138 138 168 168 168 177 177 177 148 148 148 140 140 140 135 135 135 160 160 160 155 155 155 126 126 126 0 0 0 0 0 0 174 174 174 174 174 174 149 149 149 140 140 140 147 147 147 156 156 156 162 162 162 93 93 93 94 94 94 0 0 0 
0 0 0 155 155 155 152 152 152 123 123 123 134 134 134 167 167 167 158 158 158 124 124 124 123 123 123 177 177 177 160 160 160 171 171 171 145 145 145 79 79 79 161 161 161 176 176 176 178 178 178 162 162 162 145 145 145 170 170 170 174 174 174 167 167 167 178 178 178 171 171 171 112 112 112 97 97 97 45 45 45 158 158 158 158 158 158 148 148 148 133 133 133 167 167 167 159 159 159 177 177 177 171 171 171 170 170 170 138 138 138 9 9 9 134 134 134 161 161 161 49 49 49 118 118 118 162 162 162 154 154 154 156 156 156 173 173 173 96 96 96 109 109 109 172 172 172 165 165 165 99 99 99 5 5 5 0 0 0 0 0 0 177 177 177 174 174 174 134 134 134 126 126 126 131 131 131 115 115 115 84 84 84 99 99 99 123 123 123 0 0 0 
0 0 0 105 105 105 127 127 127 115 115 115 175 175 175 167 167 167 173 173 173 123 123 123 125 125 125 126 126 126 116 116 116 176 176 176 178 178 178 160 160 160 132 132 132 167 167 167 164 164 164 108 108 108 118 118 118 160 160 160 167 167 167 173 173 173 178 178 178 126 126 126 109 109 109 103 103 103 123 123 123 164 164 164 157 157 157 167 167 167 155 155 155 165 165 165 152 152 152 165 165 165 166 166 166 120 120 120 150 150 150 121 121 121 137 137 137 123 123 123 149 149 149 75 75 75 118 118 118 145 145 145 82 82 82 145 145 145 124 124 124 175 175 175 178 178 178 167 167 167 176 176 176 0 0 0 0 0 0 0 0 0 161 161 161 175 175 175 171 171 171 175 175 175 147 147 147 169 169 169 163 163 163 143 143 143 126 126 126 0 0 0 
0 0 0 128 128 128 92 92 92 152 152 152 163 163 163 125 125 125 177 177 177 178 178 178 143 143 143 67 67 67 73 73 73 157 157 157 137 137 137 158 158 158 177 177 177 145 145 145 126 126 126 172 172 172 177 177 177 178 178 178 164 164 164 139 139 139 175 175 175 96 96 96 92 92 92 174 174 174 142 142 142 80 80 80 106 106 106 137 137 137 94 94 94 116 116 116 48 48 48 156 156 156 165 165 165 116 116 116 108 108 108 150 150 150 121 121 121 169 169 169 132 132 132 110 110 110 75 75 75 162 162 162 162 162 162 128 128 128 170 170 170 178 178 178 177 177 177 135 135 135 162 162 162 0 0 0 0 0 0 0 0 0 159 159 159 177 177 177 178 178 178 177 177 177 168 168 168 115 115 115 159 159 159 178 178 178 147 147 147 0 0 0 
0 0 0 0 0 0 175 175 175 165 165 165 149 149 149 110 110 110 169 169 169 163 163 163 154 154 154 125 125 125 145 145 145 161 161 161 124 124 124 140 140 140 176 176 176 158 158 158 143 143 143 161 161 161 152 152 152 173 173 173 158 158 158 128 128 128 172 172 172 154 154 154 111 111 111 130 130 130 40 40 40 61 61 61 65 65 65 47 47 47 146 146 146 92 92 92 136 136 136 172 172 172 157 157 157 124 124 124 123 123 123 98 98 98 103 103 103 123 123 123 169 169 169 176 176 176 80 80 80 111 111 111 168 168 168 163 163 163 171 171 171 146 146 146 110 110 110 141 141 141 0 0 0 0 0 0 0 0 0 0 0 0 163 163 163 177 177 177 178 178 178 178 178 178 157 157 157 104 104 104 122 122 122 173 173 173 173 173 173 0 0 0 
0 0 0 0 0 0 168 168 168 165 165 165 142 142 142 117 117 117 134 134 134 144 144 144 163 163 163 170 170 170 168 168 168 175 175 175 178 178 178 134 134 134 171 171 171 174 174 174 176 176 176 171 171 171 163 163 163 178 178 178 178 178 178 177 177 177 176 176 176 176 176 176 142 142 142 106 106 106 98 98 98 135 135 135 170 170 170 76 76 76 162 162 162 159 159 159 175 175 175 140 140 140 145 145 145 70 70 70 93 93 93 64 64 64 10 10 10 108 108 108 162 162 162 111 111 111 91 91 91 97 97 97 158 158 158 178 178 178 169 169 169 136 136 136 116 116 116 94 94 94 0 0 0 0 0 0 0 0 0 0 0 0 170 170 170 177 177 177 175 175 175 162 162 162 178 178 178 144 144 144 158 158 158 133 133 133 140 140 140 5 5 5 
0 0 0 0 0 0 177 177 177 174 174 174 129 129 129 164 164 164 163 163 163 170 170 170 178 178 178 178 178 178 169 169 169 176 176 176 177 177 177 143 143 143 150 150 150 178 178 178 142 142 142 160 160 160 165 165 165 167 167 167 166 166 166 176 176 176 171 171 171 177 177 177 119 119 119 85 85 85 76 76 76 139 139 139 170 170 170 158 158 158 176 176 176 163 163 163 152 152 152 95 95 95 71 71 71 113 113 113 85 85 85 86 86 86 28 28 28 146 146 146 150 150 150 107 107 107 172 172 172 163 163 163 174 174 174 142 142 142 147 147 147 171 171 171 163 163 163 133 133 133 0 0 0 0 0 0 0 0 0 0 0 0 131 131 131 143 143 143 133 133 133 123 123 123 167 167 167 125 125 125 162 162 162 119 119 119 152 152 152 5 5 5 
0 0 0 0 0 0 178 178 178 160 160 160 131 131 131 142 142 142 161 161 161 178 178 178 167 167 167 118 118 118 170 170 170 176 176 176 151 151 151 178 178 178 178 178 178 174 174 174 162 162 162 159 159 159 178 178 178 178 178 178 178 178 178 172 172 172 134 134 134 131 131 131 94 94 94 117 117 117 66 66 66 27 27 27 137 137 137 120 120 120 175 175 175 176 176 176 146 146 146 54 54 54 55 55 55 107 107 107 104 104 104 33 33 33 41 41 41 117 117 117 69 69 69 48 48 48 153 153 153 160 160 160 128 128 128 131 131 131 95 95 95 166 166 166 172 172 172 0 0 0 0 0 0 0 0 0 0 0 0 0 0 0 155 155 155 65 65 65 88 88 88 134 134 134 142 142 142 110 110 110 158 158 158 109 109 109 158 158 158 5 5 5 
0 0 0 0 0 0 156 156 156 146 146 146 150 150 150 152 152 152 174 174 174 166 166 166 174 174 174 142 142 142 131 131 131 113 113 113 159 159 159 178 178 178 177 177 177 133 133 133 138 138 138 131 131 131 155 155 155 178 178 178 177 177 177 153 153 153 106 106 106 115 115 115 122 122 122 168 168 168 146 146 146 146 146 146 87 87 87 76 76 76 113 113 113 133 133 133 95 95 95 128 128 128 58 58 58 75 75 75 93 93 93 63 63 63 86 86 86 175 175 175 156 156 156 116 116 116 170 170 170 151 151 151 155 155 155 171 171 171 113 113 113 101 101 101 134 134 134 0 0 0 0 0 0 0 0 0 0 0 0 0 0 0 173 173 173 96 96 96 101 101 101 112 112 112 169 169 169 176 176 176 127 127 127 92 92 92 138 138 138 5 5 5 
0 0 0 0 0 0 166 166 166 128 128 128 115 115 115 170 170 170 178 178 178 168 168 168 176 176 176 177 177 177 174 174 174 134 134 134 114 114 114 176 176 176 178 178 178 175 175 175 178 178 178 178 178 178 176 176 176 178 178 178 178 178 178 163 163 163 140 140 140 136 136 136 142 142 142 107 107 107 77 77 77 103 103 103 59 59 59 57 57 57 59 59 59 98 98 98 41 41 41 72 72 72 39 39 39 89 89 89 104 104 104 87 87 87 62 62 62 146 146 146 96 96 96 136 136 136 170 170 170 175 175 175 160 160 160 175 175 175 95 95 95 29 29 29 78 78 78 0 0 0 0 0 0 0 0 0 0 0 0 0 0 0 178 178 178 168 168 168 152 152 152 173 173 173 178 178 178 151 151 151 148 148 148 110 110 110 102 102 102 0 0 0 
0 0 0 0 0 0 0 0 0 143 143 143 135 135 135 178 178 178 178 178 178 173 173 173 173 173 173 161 161 161 175 175 175 177 177 177 173 173 173 157 157 157 163 163 163 173 173 173 174 174 174 171 171 171 154 154 154 178 178 178 168 168 168 120 120 120 138 138 138 76 76 76 70 70 70 73 73 73 102 102 102 47 47 47 97 97 97 154 154 154 118 118 118 122 122 122 73 73 73 90 90 90 34 34 34 135 135 135 122 122 122 108 108 108 41 41 41 50 50 50 26 26 26 137 137 137 166 166 166 168 168 168 176 176 176 164 164 164 148 148 148 57 57 57 0 0 0 0 0 0 0 0 0 0 0 0 0 0 0 0 0 0 0 0 0 171 171 171 170 170 170 135 135 135 165 165 165 132 132 132 145 145 145 174 174 174 176 176 176 0 0 0 
0 0 0 0 0 0 0 0 0 143 143 143 176 176 176 175 175 175 176 176 176 162 162 162 170 170 170 158 158 158 175 175 175 166 166 166 177 177 177 165 165 165 167 167 167 150 150 150 166 166 166 176 176 176 177 177 177 150 150 150 142 142 142 153 153 153 156 156 156 63 63 63 141 141 141 137 137 137 156 156 156 142 142 142 161 161 161 137 137 137 128 128 128 154 154 154 80 80 80 95 95 95 44 44 44 138 138 138 52 52 52 114 114 114 65 65 65 81 81 81 126 126 126 175 175 175 175 175 175 178 178 178 171 171 171 155 155 155 132 132 132 120 120 120 0 0 0 0 0 0 0 0 0 0 0 0 0 0 0 0 0 0 0 0 0 154 154 154 133 133 133 97 97 97 140 140 140 155 155 155 175 175 175 177 177 177 161 161 161 0 0 0 
0 0 0 0 0 0 0 0 0 155 155 155 176 176 176 168 168 168 150 150 150 147 147 147 142 142 142 140 140 140 174 174 174 172 172 172 176 176 176 178 178 178 178 178 178 156 156 156 151 151 151 177 177 177 177 177 177 150 150 150 175 175 175 177 177 177 173 173 173 172 172 172 178 178 178 178 178 178 161 161 161 157 157 157 169 169 169 172 172 172 173 173 173 147 147 147 161 161 161 170 170 170 109 109 109 80 80 80 32 32 32 28 28 28 57 57 57 140 140 140 106 106 106 104 104 104 172 172 172 178 178 178 172 172 172 85 85 85 56 56 56 5 5 5 0 0 0 0 0 0 0 0 0 0 0 0 0 0 0 0 0 0 0 0 0 178 178 178 173 173 173 133 133 133 138 138 138 162 162 162 176 176 176 110 110 110 5 5 5 0 0 0 
0 0 0 0 0 0 0 0 0 176 176 176 148 148 148 157 157 157 160 160 160 163 163 163 133 133 133 74 74 74 170 170 170 173 173 173 150 150 150 169 169 169 158 158 158 161 161 161 157 157 157 150 150 150 169 169 169 174 174 174 178 178 178 175 175 175 177 177 177 160 160 160 177 177 177 177 177 177 95 95 95 133 133 133 169 169 169 178 178 178 177 177 177 176 176 176 134 134 134 149 149 149 174 174 174 159 159 159 142 142 142 120 120 120 87 87 87 145 145 145 149 149 149 72 72 72 122 122 122 151 151 151 151 151 151 51 51 51 75 75 75 0 0 0 0 0 0 0 0 0 0 0 0 0 0 0 0 0 0 0 0 0 0 0 0 0 0 0 150 150 150 157 157 157 147 147 147 172 172 172 155 155 155 145 145 145 0 0 0 0 0 0 
0 0 0 0 0 0 0 0 0 178 178 178 164 164 164 159 159 159 176 176 176 171 171 171 149 149 149 159 159 159 173 173 173 178 178 178 173 173 173 143 143 143 167 167 167 172 172 172 148 148 148 124 124 124 170 170 170 177 177 177 157 157 157 112 112 112 147 147 147 176 176 176 172 172 172 178 178 178 143 143 143 98 98 98 135 135 135 178 178 178 178 178 178 161 161 161 88 88 88 155 155 155 174 174 174 170 170 170 166 166 166 137 137 137 121 121 121 33 33 33 136 136 136 27 27 27 130 130 130 171 171 171 138 138 138 132 132 132 124 124 124 0 0 0 0 0 0 0 0 0 0 0 0 0 0 0 0 0 0 0 0 0 0 0 0 0 0 0 129 129 129 113 113 113 158 158 158 118 118 118 160 160 160 141 141 141 0 0 0 0 0 0 
0 0 0 0 0 0 0 0 0 152 152 152 110 110 110 136 136 136 149 149 149 160 160 160 113 113 113 114 114 114 163 163 163 172 172 172 172 172 172 167 167 167 172 172 172 164 164 164 139 139 139 166 166 166 178 178 178 177 177 177 143 143 143 143 143 143 127 127 127 150 150 150 122 122 122 133 133 133 175 175 175 170 170 170 112 112 112 172 172 172 158 158 158 177 177 177 164 164 164 148 148 148 129 129 129 151 151 151 87 87 87 117 117 117 159 159 159 84 84 84 58 58 58 47 47 47 123 123 123 159 159 159 171 171 171 134 134 134 0 0 0 0 0 0 0 0 0 0 0 0 0 0 0 0 0 0 0 0 0 0 0 0 0 0 0 0 0 0 178 178 178 157 157 157 178 178 178 152 152 152 125 125 125 133 133 133 0 0 0 0 0 0 
0 0 0 0 0 0 0 0 0 5 5 5 86 86 86 113 113 113 158 158 158 177 177 177 175 175 175 151 151 151 164 164 164 172 172 172 151 151 151 142 142 142 167 167 167 145 145 145 117 117 117 177 177 177 178 178 178 168 168 168 171 171 171 174 174 174 174 174 174 166 166 166 97 97 97 136 136 136 166 166 166 173 173 173 90 90 90 126 126 126 163 163 163 172 172 172 110 110 110 149 149 149 107 107 107 109 109 109 141 141 141 147 147 147 168 168 168 90 90 90 115 115 115 166 166 166 148 148 148 159 159 159 177 177 177 143 143 143 0 0 0 0 0 0 0 0 0 0 0 0 0 0 0 0 0 0 0 0 0 0 0 0 0 0 0 0 0 0 178 178 178 127 127 127 173 173 173 176 176 176 167 167 167 5 5 5 0 0 0 0 0 0 
0 0 0 0 0 0 0 0 0 0 0 0 75 75 75 89 89 89 146 146 146 166 166 166 155 155 155 176 176 176 166 166 166 169 169 169 175 175 175 106 106 106 164 164 164 144 144 144 140 140 140 152 152 152 158 158 158 167 167 167 173 173 173 177 177 177 177 177 177 157 157 157 144 144 144 152 152 152 145 145 145 170 170 170 92 92 92 81 81 81 145 145 145 158 158 158 90 90 90 143 143 143 129 129 129 124 124 124 173 173 173 131 131 131 149 149 149 135 135 135 158 158 158 141 141 141 116 116 116 158 158 158 178 178 178 159 159 159 0 0 0 0 0 0 0 0 0 0 0 0 0 0 0 0 0 0 0 0 0 0 0 0 0 0 0 0 0 0 0 0 0 172 172 172 172 172 172 171 171 171 149 149 149 0 0 0 0 0 0 0 0 0 
0 0 0 0 0 0 0 0 0 0 0 0 144 144 144 140 140 140 144 144 144 159 159 159 174 174 174 168 168 168 165 165 165 120 120 120 156 156 156 126 126 126 168 168 168 167 167 167 176 176 176 139 139 139 165 165 165 171 171 171 168 168 168 146 146 146 176 176 176 153 153 153 144 144 144 156 156 156 168 168 168 172 172 172 134 134 134 140 140 140 109 109 109 158 158 158 152 152 152 150 150 150 142 142 142 97 97 97 152 152 152 175 175 175 135 135 135 153 153 153 170 170 170 131 131 131 166 166 166 166 166 166 174 174 174 0 0 0 0 0 0 0 0 0 0 0 0 0 0 0 0 0 0 0 0 0 0 0 0 0 0 0 0 0 0 0 0 0 0 0 0 178 178 178 174 174 174 137 137 137 168 168 168 0 0 0 0 0 0 0 0 0 
0 0 0 0 0 0 0 0 0 0 0 0 152 152 152 141 141 141 165 165 165 170 170 170 133 133 133 75 75 75 147 147 147 168 168 168 176 176 176 171 171 171 161 161 161 178 178 178 178 178 178 155 155 155 175 175 175 155 155 155 170 170 170 153 153 153 153 153 153 148 148 148 97 97 97 100 100 100 152 152 152 174 174 174 178 178 178 164 164 164 170 170 170 178 178 178 160 160 160 136 136 136 123 123 123 99 99 99 152 152 152 160 160 160 142 142 142 173 173 173 167 167 167 134 134 134 171 171 171 174 174 174 174 174 174 0 0 0 0 0 0 0 0 0 0 0 0 0 0 0 0 0 0 0 0 0 0 0 0 0 0 0 0 0 0 0 0 0 0 0 0 177 177 177 163 163 163 154 154 154 167 167 167 0 0 0 0 0 0 0 0 0 
0 0 0 0 0 0 0 0 0 0 0 0 141 141 141 155 155 155 145 145 145 121 121 121 152 152 152 138 138 138 173 173 173 173 173 173 159 159 159 135 135 135 137 137 137 178 178 178 178 178 178 176 176 176 173 173 173 172 172 172 151 151 151 163 163 163 152 152 152 160 160 160 78 78 78 138 138 138 169 169 169 150 150 150 162 162 162 170 170 170 175 175 175 174 174 174 128 128 128 112 112 112 166 166 166 178 178 178 169 169 169 174 174 174 163 163 163 164 164 164 167 167 167 172 172 172 170 170 170 178 178 178 173 173 173 0 0 0 0 0 0 0 0 0 0 0 0 0 0 0 0 0 0 0 0 0 0 0 0 0 0 0 0 0 0 0 0 0 0 0 0 0 0 0 175 175 175 173 173 173 5 5 5 0 0 0 0 0 0 0 0 0 
0 0 0 0 0 0 0 0 0 0 0 0 178 178 178 175 175 175 107 107 107 115 115 115 145 145 145 172 172 172 164 164 164 152 152 152 83 83 83 106 106 106 169 169 169 178 178 178 178 178 178 177 177 177 174 174 174 163 163 163 139 139 139 170 170 170 153 153 153 171 171 171 94 94 94 124 124 124 172 172 172 112 112 112 162 162 162 164 164 164 110 110 110 143 143 143 125 125 125 174 174 174 178 178 178 175 175 175 172 172 172 178 178 178 168 168 168 172 172 172 157 157 157 86 86 86 124 124 124 165 165 165 0 0 0 0 0 0 0 0 0 0 0 0 0 0 0 0 0 0 0 0 0 0 0 0 0 0 0 0 0 0 0 0 0 0 0 0 0 0 0 0 0 0 157 157 157 149 149 149 0 0 0 0 0 0 0 0 0 0 0 0 
0 0 0 0 0 0 0 0 0 0 0 0 0 0 0 0 0 0 0 0 0 0 0 0 0 0 0 0 0 0 178 178 178 143 143 143 141 141 141 134 134 134 174 174 174 177 177 177 178 178 178 178 178 178 162 162 162 113 113 113 116 116 116 171 171 171 178 178 178 157 157 157 126 126 126 57 57 57 142 142 142 97 97 97 177 177 177 175 175 175 146 146 146 158 158 158 155 155 155 178 178 178 175 175 175 158 158 158 150 150 150 162 162 162 161 161 161 178 178 178 176 176 176 161 161 161 134 134 134 162 162 162 0 0 0 0 0 0 0 0 0 0 0 0 0 0 0 0 0 0 0 0 0 0 0 0 0 0 0 0 0 0 0 0 0 0 0 0 0 0 0 0 0 0 178 178 178 170 170 170 0 0 0 0 0 0 0 0 0 0 0 0 
0 0 0 0 0 0 0 0 0 0 0 0 0 0 0 0 0 0 0 0 0 0 0 0 0 0 0 0 0 0 0 0 0 0 0 0 0 0 0 0 0 0 0 0 0 0 0 0 0 0 0 0 0 0 0 0 0 0 0 0 0 0 0 0 0 0 0 0 0 0 0 0 0 0 0 0 0 0 0 0 0 148 148 148 166 166 166 178 178 178 150 150 150 118 118 118 164 164 164 167 167 167 134 134 134 120 120 120 177 177 177 176 176 176 170 170 170 178 178 178 136 136 136 176 176 176 167 167 167 0 0 0 0 0 0 0 0 0 0 0 0 0 0 0 0 0 0 0 0 0 0 0 0 0 0 0 0 0 0 0 0 0 0 0 0 0 0 0 0 0 0 0 0 0 0 0 0 0 0 0 0 0 0 0 0 0 0 0 0 0 0 0 
