P3
64 64
255
0 0 0 0 0 0 0 0 0 0 0 0 0 0 0 0 0 0 0 0 0 0 0 0 0 0 0 0 0 0 0 0 0 0 0 0 0 0 0 0 0 0 0 0 0 0 0 0 0 0 0 0 0 0 0 0 0 0 0 0 0 0 0 0 0 0 0 0 0 0 0 0 0 0 0 0 0 0 0 0 0 0 0 0 0 0 0 0 0 0 0 0 0 148 111 69 142 80 74 140 105 71 144 97 76 142 99 73 145 82 79 142 95 72 145 107 72 145 93 77 142 95 74 146 99 78 142 92 74 0 0 0 0 0 0 0 0 0 0 0 0 0 0 0 0 0 0 0 0 0 143 73 73 146 106 68 144 79 74 143 95 71 145 94 74 0 0 0 0 0 0 146 115 71 0 0 0 0 0 0 0 0 0 0 0 0 0 0 0 0 0 0 
0 0 0 0 0 0 0 0 0 0 0 0 0 0 0 0 0 0 0 0 0 0 0 0 0 0 0 0 0 0 0 0 0 0 0 0 0 0 0 140 130 49 143 97 75 145 85 80 145 80 79 146 83 80 146 104 73 149 88 85 147 84 84 147 82 81 145 82 78 146 81 80 145 108 71 145 98 76 145 90 77 147 101 77 143 87 75 142 84 75 144 86 73 140 106 66 141 117 66 144 121 66 143 112 71 146 116 70 146 115 70 139 102 70 138 104 67 143 95 75 142 117 69 140 103 72 145 94 74 141 105 68 0 0 0 0 0 0 0 0 0 0 0 0 146 81 81 144 88 75 143 84 73 142 100 65 142 92 68 146 99 71 147 109 71 0 0 0 0 0 0 147 116 72 144 134 67 0 0 0 0 0 0 0 0 0 0 0 0 0 0 0 
0 0 0 0 0 0 0 0 0 0 0 0 147 82 81 146 81 80 146 81 80 143 76 75 141 104 63 143 99 71 147 91 78 146 82 79 145 85 77 146 88 79 147 105 74 147 99 79 146 90 80 145 86 78 137 107 67 143 88 77 146 86 81 146 83 81 146 94 78 146 90 78 144 81 77 146 85 80 148 96 80 143 91 75 144 114 66 142 84 74 147 112 68 141 116 62 144 90 74 142 95 71 144 101 73 148 97 78 138 100 67 141 101 71 141 104 70 144 85 77 145 90 76 148 112 74 147 99 74 141 95 68 0 0 0 0 0 0 0 0 0 0 0 0 147 83 83 146 83 81 144 98 73 141 80 68 142 80 71 144 80 76 144 87 76 134 132 46 146 79 79 146 93 78 146 81 81 0 0 0 0 0 0 0 0 0 0 0 0 0 0 0 
0 0 0 0 0 0 0 0 0 0 0 0 146 80 80 146 80 79 145 91 76 143 87 73 144 80 75 143 86 74 146 109 71 148 113 72 145 81 79 145 84 77 144 96 73 147 94 82 144 99 76 146 95 77 146 92 78 145 99 76 147 98 79 148 97 78 146 96 76 146 98 76 143 94 73 146 103 75 145 91 78 146 109 72 146 84 77 143 76 75 143 80 73 143 89 72 146 79 79 146 94 76 142 105 69 148 115 71 145 82 79 144 78 77 145 82 78 141 102 70 140 99 68 144 77 76 142 93 72 139 116 63 0 0 0 0 0 0 0 0 0 0 0 0 148 87 84 148 89 85 144 81 75 142 79 69 143 95 68 145 93 74 142 95 73 146 113 71 145 84 80 146 83 82 147 82 82 0 0 0 0 0 0 0 0 0 0 0 0 0 0 0 
0 0 0 0 0 0 0 0 0 0 0 0 147 82 81 147 83 82 146 95 78 144 89 76 146 82 80 145 82 80 142 122 62 142 95 72 145 88 75 148 124 61 143 118 66 150 114 77 147 106 77 148 105 81 147 123 71 150 131 69 131 94 70 136 97 69 147 114 72 141 94 72 146 83 80 146 85 81 142 95 73 144 88 75 143 77 74 140 82 70 142 103 66 145 89 74 144 90 73 143 91 75 145 84 79 145 88 78 140 93 71 141 90 73 133 103 63 143 108 69 143 107 69 144 93 74 143 87 73 144 81 75 144 89 74 0 0 0 0 0 0 0 0 0 146 104 77 146 103 78 146 83 80 143 80 74 144 96 68 142 96 71 139 118 62 136 115 61 146 93 77 145 103 74 147 95 78 0 0 0 0 0 0 0 0 0 0 0 0 0 0 0 
0 0 0 0 0 0 0 0 0 0 0 0 147 83 82 149 97 80 143 107 70 147 87 81 143 108 71 142 101 72 147 113 71 146 84 79 146 86 77 142 118 60 146 119 67 144 83 78 147 92 80 156 119 83 141 116 71 151 120 76 151 138 67 146 135 66 139 106 65 144 93 72 144 110 70 144 90 77 146 82 80 140 108 68 137 115 60 142 121 61 147 134 59 145 93 75 140 96 71 146 121 69 144 87 77 144 110 68 142 112 66 146 96 75 141 94 71 145 100 71 143 122 67 141 90 72 144 87 76 143 95 72 142 120 65 0 0 0 0 0 0 0 0 0 144 103 77 147 106 79 147 88 82 140 102 67 140 100 70 145 79 79 146 80 80 145 83 78 142 109 65 143 111 67 145 80 77 0 0 0 0 0 0 0 0 0 0 0 0 0 0 0 
0 0 0 0 0 0 0 0 0 121 124 28 148 88 85 146 88 81 141 98 71 142 103 71 148 104 77 147 92 79 147 84 82 146 101 75 142 109 69 141 110 64 146 107 72 146 82 80 146 82 81 149 113 72 138 111 64 141 106 72 150 127 68 142 114 70 147 124 64 146 111 71 143 94 72 144 82 77 146 80 79 148 108 74 138 122 59 136 128 55 132 114 60 139 102 69 140 107 68 145 90 76 136 119 57 138 118 62 144 83 76 145 82 77 145 82 78 143 115 66 138 109 63 144 82 76 145 80 78 146 97 77 137 118 60 137 138 49 0 0 0 0 0 0 148 85 84 144 102 75 147 85 83 145 96 76 147 103 75 145 78 78 144 88 74 148 101 75 146 109 70 142 104 69 145 81 76 0 0 0 0 0 0 0 0 0 0 0 0 0 0 0 
0 0 0 0 0 0 0 0 0 147 83 81 144 94 78 148 88 82 141 109 66 146 124 63 142 116 65 147 108 75 146 80 80 146 85 79 143 97 72 145 97 74 146 102 73 145 88 76 147 95 77 146 89 78 147 101 75 151 109 79 147 125 65 147 95 78 147 106 76 148 87 84 145 100 75 143 112 69 144 86 77 144 80 77 144 92 75 149 101 79 147 93 80 148 94 81 152 107 79 145 79 78 143 89 73 147 126 66 141 94 72 142 102 72 140 114 64 140 119 61 135 100 65 143 84 74 144 86 77 145 100 75 134 117 59 145 125 63 0 0 0 0 0 0 147 83 83 147 89 80 147 85 82 147 86 82 135 94 68 145 90 76 139 99 68 149 132 70 144 85 76 144 81 76 144 94 75 141 136 56 0 0 0 0 0 0 0 0 0 0 0 0 
0 0 0 0 0 0 0 0 0 147 82 81 146 86 79 144 99 72 143 90 73 144 97 72 142 120 63 145 92 76 142 98 69 145 111 66 145 103 72 145 98 74 148 94 77 147 102 77 146 95 79 149 101 78 147 85 80 148 99 80 147 120 69 147 90 79 141 105 72 147 96 79 140 110 68 140 101 70 144 108 70 145 95 74 155 132 69 142 102 72 144 87 78 145 109 72 143 91 73 141 95 71 143 78 74 142 84 73 144 79 76 145 88 76 139 98 70 143 107 69 145 78 77 144 83 76 139 107 69 144 87 76 140 112 65 138 120 60 0 0 0 0 0 0 147 83 82 148 88 83 148 88 84 147 90 82 146 80 80 145 89 77 145 99 74 147 109 76 145 95 75 146 80 80 145 105 72 143 125 63 0 0 0 0 0 0 0 0 0 0 0 0 
0 0 0 0 0 0 0 0 0 144 91 77 144 87 76 143 87 76 143 95 72 144 102 72 147 115 71 146 103 72 140 109 64 130 111 56 136 102 66 143 85 75 145 82 79 147 89 82 148 88 84 145 92 77 147 90 79 145 90 79 146 86 80 146 88 80 144 100 74 145 87 77 146 89 78 144 109 73 130 110 60 138 119 64 147 105 74 137 118 58 140 102 69 146 92 78 143 88 74 145 108 70 143 82 75 142 85 72 140 86 72 144 91 75 144 86 76 134 98 65 141 102 69 132 93 64 120 103 54 140 92 73 145 87 80 139 118 63 145 131 60 0 0 0 146 82 81 146 86 81 148 89 84 147 95 81 144 95 76 136 116 61 141 94 72 144 94 74 144 106 70 146 122 65 134 118 57 145 129 59 0 0 0 0 0 0 0 0 0 0 0 0 
0 0 0 0 0 0 0 0 0 142 104 71 143 104 71 144 101 72 136 111 63 147 98 78 144 100 74 144 102 74 145 104 70 146 122 62 150 112 72 145 80 79 147 82 82 147 85 83 147 85 82 145 86 81 149 87 86 147 84 81 145 93 77 145 98 75 149 130 62 141 108 65 141 99 70 129 109 58 136 119 58 139 110 65 141 102 71 145 116 70 145 93 75 144 81 77 145 80 78 144 84 74 143 87 73 145 88 77 142 108 71 146 95 79 146 82 81 144 85 78 138 116 63 135 113 59 144 126 66 147 111 76 149 90 82 155 124 75 152 126 70 0 0 0 144 78 77 147 89 79 148 85 84 148 86 84 148 93 83 144 101 75 146 93 78 146 81 80 146 90 79 140 118 65 140 129 58 138 128 57 0 0 0 0 0 0 0 0 0 0 0 0 
0 0 0 0 0 0 0 0 0 149 99 79 144 95 73 143 87 74 143 114 67 142 93 75 140 102 70 139 106 68 137 114 63 131 113 58 146 84 81 142 96 73 145 85 79 144 97 75 147 90 82 147 92 79 147 83 82 146 81 80 145 84 78 142 95 73 138 115 60 138 119 56 144 86 76 124 101 56 140 103 69 144 88 78 147 94 81 144 93 76 140 92 72 143 101 72 146 94 76 143 97 71 148 118 69 145 89 77 144 88 79 148 91 82 146 83 81 145 88 78 145 102 73 148 129 64 154 133 73 148 93 79 149 95 80 144 115 70 147 127 69 0 0 0 146 96 77 147 105 75 149 104 78 150 109 77 148 88 83 149 100 79 147 118 72 146 95 78 142 114 68 146 103 77 135 112 60 138 119 64 0 0 0 0 0 0 0 0 0 0 0 0 
0 0 0 0 0 0 0 0 0 146 81 79 146 83 79 144 83 76 138 108 63 136 105 65 146 84 80 142 105 71 143 112 67 143 92 76 147 88 80 143 112 69 142 96 74 144 81 76 143 85 73 144 114 67 146 118 70 145 96 75 147 89 78 144 91 74 138 100 68 139 121 58 142 87 74 149 128 64 145 106 72 143 104 72 146 92 79 149 103 82 145 80 79 146 82 80 146 81 80 144 90 76 134 103 66 139 92 74 139 127 61 143 106 74 142 90 77 141 99 75 143 97 74 146 114 70 149 118 73 144 124 68 145 109 70 144 94 76 152 129 72 143 107 70 145 81 79 145 80 79 147 88 81 147 113 72 147 90 82 153 122 73 147 123 68 145 104 74 142 109 67 146 84 80 144 98 75 130 111 59 139 141 52 0 0 0 0 0 0 0 0 0 
0 0 0 0 0 0 150 118 73 148 98 77 143 93 73 145 83 78 137 111 61 137 114 62 146 97 78 149 92 81 145 96 74 146 83 80 144 92 75 144 104 72 146 95 78 145 78 78 138 94 68 145 96 76 145 98 76 146 85 79 145 83 77 145 87 76 140 118 61 127 110 54 141 91 74 143 100 73 147 110 74 147 127 69 137 109 65 144 117 73 147 93 81 142 95 76 146 84 82 147 86 80 147 82 82 148 87 84 147 95 81 144 94 78 141 92 76 143 112 70 146 91 78 147 92 78 146 120 69 143 130 65 147 120 71 146 101 74 141 114 68 144 106 73 145 79 78 143 89 74 147 84 82 148 86 85 148 93 82 147 87 82 151 109 76 142 104 69 146 92 75 145 84 78 146 91 77 131 106 61 115 106 42 0 0 0 0 0 0 0 0 0 
0 0 0 0 0 0 147 82 82 146 82 81 148 117 70 146 87 80 147 110 74 144 91 77 142 108 71 146 100 77 145 101 75 147 89 80 146 89 78 147 86 79 148 92 81 146 81 80 143 101 73 145 86 78 147 91 78 144 79 77 141 95 71 137 98 66 129 106 61 145 98 74 146 81 80 146 82 80 141 98 72 136 108 68 145 85 81 147 87 81 146 93 81 146 84 82 140 91 75 141 93 75 147 84 82 145 100 77 146 84 82 147 83 82 146 91 80 144 109 73 146 92 79 142 102 72 140 121 64 139 121 63 143 128 63 145 93 76 142 96 74 144 94 75 145 91 76 143 118 67 145 88 79 147 83 83 150 98 82 145 105 73 144 84 78 144 87 75 144 83 76 144 90 73 144 88 76 141 80 73 139 88 70 0 0 0 0 0 0 0 0 0 
0 0 0 0 0 0 147 83 82 147 103 73 148 114 69 148 100 77 141 112 67 132 102 65 142 86 75 143 91 77 152 103 76 146 87 80 146 84 81 144 101 75 145 96 75 145 79 79 145 80 77 146 81 80 145 93 76 144 80 76 143 78 75 142 77 71 138 92 66 142 106 68 140 110 66 142 108 70 142 121 64 146 97 78 148 84 84 148 99 80 143 92 77 146 82 81 150 127 69 143 103 72 147 84 82 147 85 83 146 82 81 146 89 80 145 89 79 147 83 82 146 83 80 144 106 74 138 113 63 141 126 61 142 115 67 145 80 78 140 101 70 144 81 75 143 114 71 141 112 65 144 87 77 146 83 82 146 90 79 146 112 74 145 94 77 146 82 80 145 80 78 144 80 76 146 96 77 145 80 78 145 78 78 0 0 0 0 0 0 0 0 0 
0 0 0 0 0 0 146 85 79 147 86 80 146 83 79 140 98 71 120 109 52 140 128 61 148 115 71 142 110 69 145 101 72 147 87 80 143 93 75 146 90 80 144 101 75 145 85 78 145 79 78 145 94 77 141 121 60 142 95 72 140 100 68 141 88 68 137 114 63 136 120 54 142 114 65 145 86 78 142 89 76 145 81 79 146 90 80 145 88 79 146 91 80 147 88 82 141 105 69 140 101 69 146 83 80 148 84 84 146 82 80 145 86 79 144 97 75 146 83 79 141 91 73 141 103 70 145 92 77 139 105 68 141 122 65 144 94 75 145 82 77 144 82 75 143 102 70 142 94 70 144 84 75 144 79 77 144 86 76 145 78 78 145 89 76 146 81 81 144 83 77 147 109 72 145 81 77 146 83 81 147 85 80 0 0 0 0 0 0 0 0 0 
0 0 0 0 0 0 145 88 76 145 92 75 146 82 79 138 112 62 138 122 58 142 91 73 144 98 72 145 95 73 139 105 67 143 89 74 144 84 75 145 82 80 147 85 83 144 104 72 142 87 74 148 90 80 143 111 68 145 87 78 142 106 69 147 96 72 143 86 73 138 114 61 142 86 74 145 92 78 146 85 82 144 96 77 146 107 74 141 95 73 146 86 79 147 87 84 147 91 77 143 94 73 144 85 78 145 89 79 146 91 80 141 92 75 143 90 76 144 86 77 137 112 63 140 98 70 144 81 77 140 108 70 138 120 63 144 94 75 144 85 77 143 76 75 141 88 72 110 116 27 0 0 0 0 0 0 144 80 77 145 79 79 143 112 67 146 95 78 147 97 77 147 102 73 147 92 78 147 99 80 146 89 80 0 0 0 0 0 0 0 0 0 
0 0 0 0 0 0 146 86 79 146 82 81 143 88 74 143 125 61 137 109 63 143 87 72 147 118 65 152 108 80 149 124 65 142 99 68 145 79 78 145 99 73 141 105 66 144 107 70 144 114 70 146 83 80 144 83 77 140 99 73 138 118 60 143 90 74 143 93 73 140 108 66 143 98 73 143 102 73 145 91 78 144 104 75 138 108 68 139 96 72 145 84 79 146 81 80 146 99 75 145 91 77 146 90 80 141 100 72 142 111 69 145 80 78 143 88 74 142 99 70 144 121 66 138 95 67 136 104 65 138 115 64 141 118 65 145 84 77 142 103 70 141 89 71 143 82 74 145 92 73 0 0 0 0 0 0 0 0 0 0 0 0 146 80 81 148 100 80 147 93 81 147 86 81 147 122 69 143 95 76 147 85 82 0 0 0 0 0 0 0 0 0 
0 0 0 155 138 63 147 99 75 145 93 74 141 90 69 144 114 63 144 84 78 145 100 69 150 119 65 150 122 67 149 126 63 144 104 69 142 82 73 142 85 72 143 91 71 145 94 75 141 95 73 141 105 71 145 85 77 137 105 66 140 93 74 142 97 72 139 98 67 145 113 69 145 98 75 145 90 77 148 109 75 135 117 60 150 113 75 142 120 66 140 109 65 149 96 76 168 141 81 150 104 82 146 83 79 146 109 71 135 111 62 144 81 77 144 86 76 139 99 70 141 102 69 139 116 64 142 98 70 143 88 74 142 96 73 145 86 77 137 91 68 140 111 64 143 89 73 145 89 76 0 0 0 0 0 0 0 0 0 0 0 0 145 83 80 146 81 81 149 87 86 148 86 83 148 110 73 147 88 81 147 85 83 145 92 78 0 0 0 0 0 0 
0 0 0 146 89 78 148 92 77 147 93 76 145 89 73 144 84 74 146 90 74 143 107 66 147 125 60 144 98 69 145 84 75 142 93 71 141 103 66 143 78 74 141 86 71 141 91 73 145 82 78 135 100 69 146 80 80 144 87 76 138 106 68 141 104 70 144 94 72 138 105 66 141 117 65 135 99 68 141 97 74 146 106 74 145 87 79 144 108 70 155 115 77 147 86 80 149 93 81 145 81 79 146 82 79 145 95 77 144 85 79 143 91 76 145 88 79 146 86 79 144 79 76 145 85 77 145 86 76 144 79 76 145 80 78 145 92 76 146 92 76 142 79 72 142 76 74 143 78 74 141 92 71 0 0 0 0 0 0 0 0 0 145 98 77 146 82 80 147 82 82 146 90 80 146 95 78 146 104 77 147 96 79 148 102 78 0 0 0 0 0 0 
0 0 0 146 80 79 145 78 78 145 85 76 143 107 66 143 117 62 149 124 65 139 115 58 140 105 61 144 84 71 141 111 63 137 117 56 140 103 65 140 98 65 141 97 69 145 82 77 144 84 77 146 93 78 147 84 82 144 108 69 140 100 71 143 108 73 145 78 78 146 94 76 146 111 69 142 95 74 147 96 79 145 126 64 143 120 63 150 125 68 141 101 69 146 107 72 145 83 79 143 81 77 146 81 79 146 83 80 146 83 81 144 90 78 147 96 79 142 84 74 139 111 65 144 92 74 143 89 75 144 79 76 145 80 78 143 92 74 145 92 74 144 77 75 144 76 76 143 90 72 141 105 67 0 0 0 0 0 0 0 0 0 146 84 82 146 82 82 147 88 81 148 88 82 147 113 70 147 91 81 146 97 78 147 103 76 0 0 0 0 0 0 
0 0 0 145 80 79 145 85 76 145 89 75 148 101 73 143 94 73 143 97 72 144 78 77 138 97 67 140 117 58 145 116 64 138 124 53 143 101 67 148 97 72 144 87 74 145 83 76 144 82 74 144 81 77 145 85 78 144 101 74 145 104 76 143 106 73 141 96 72 145 85 76 146 93 79 149 113 72 145 93 77 144 106 71 144 115 69 139 94 72 145 86 77 144 86 77 144 93 74 142 89 76 142 88 75 145 88 77 146 86 81 142 96 74 146 84 81 145 87 76 138 103 68 141 106 69 144 81 76 144 80 76 147 91 78 144 88 76 144 84 77 143 80 75 144 80 74 144 77 75 145 79 79 0 0 0 0 0 0 0 0 0 147 83 83 146 83 81 144 88 78 147 87 83 147 84 80 147 94 79 146 101 76 145 87 77 0 0 0 0 0 0 
0 0 0 143 76 74 144 109 67 149 114 69 149 106 73 149 117 68 145 93 74 145 78 77 145 90 74 141 120 60 147 126 67 144 102 73 146 86 78 151 103 75 145 86 76 144 95 71 143 84 72 144 83 75 143 101 71 134 112 60 144 98 74 144 88 76 145 118 67 147 106 71 145 91 75 144 103 71 148 112 71 146 87 80 145 104 75 142 95 74 145 83 78 144 89 75 142 109 69 143 91 75 144 84 77 140 100 69 144 99 74 141 89 75 147 84 81 147 92 78 145 86 78 145 80 77 143 104 70 144 117 67 146 82 78 147 91 78 146 82 78 144 86 75 143 76 75 143 78 73 145 91 74 144 114 65 0 0 0 0 0 0 145 94 78 142 98 75 142 119 65 147 116 71 147 85 81 148 95 79 149 93 80 145 81 78 0 0 0 0 0 0 
0 0 0 144 77 76 144 81 76 146 99 71 142 114 60 151 118 70 145 103 71 143 94 71 137 106 60 150 130 66 167 149 84 145 108 73 148 97 79 149 115 72 148 91 80 147 89 78 143 94 72 143 98 68 142 92 72 148 132 60 140 111 65 145 103 71 144 126 65 144 107 71 145 83 78 144 91 76 145 112 68 146 92 79 146 92 79 147 97 79 145 82 78 148 97 78 134 111 63 144 86 77 146 108 72 149 120 72 149 111 75 145 119 71 145 98 76 146 95 76 145 81 78 145 80 78 144 101 72 138 120 59 144 112 71 145 87 77 144 88 76 143 86 74 144 78 75 142 85 71 144 86 74 141 94 70 0 0 0 0 0 0 140 94 72 148 138 65 145 129 62 149 114 76 148 86 82 146 85 81 145 80 79 143 95 75 0 0 0 0 0 0 
146 104 70 144 84 76 145 85 76 144 88 74 146 113 69 151 139 63 151 136 67 155 142 62 147 133 60 139 101 68 146 99 74 145 122 67 148 122 72 151 130 69 148 103 76 143 108 72 142 115 64 138 90 68 144 105 72 141 87 72 139 103 66 142 98 70 142 98 68 145 88 75 145 82 79 143 94 72 142 108 68 147 98 78 147 85 82 147 84 83 145 82 75 142 81 72 144 94 73 145 110 69 143 110 68 148 110 76 148 103 77 148 109 74 147 88 80 155 118 76 139 115 63 146 88 78 145 80 77 144 89 75 145 87 77 145 81 78 144 89 74 142 85 73 144 77 77 143 84 73 146 92 72 147 108 71 143 137 52 0 0 0 147 85 82 145 118 67 144 128 61 146 101 76 145 99 76 146 87 79 145 90 76 146 101 76 0 0 0 0 0 0 
144 76 76 144 80 77 155 127 75 145 119 63 144 81 75 145 97 76 144 123 64 148 120 71 146 112 69 144 96 74 144 113 68 147 99 77 148 128 65 143 122 64 146 119 70 134 95 71 135 117 62 140 112 63 139 119 60 146 88 78 146 96 75 144 79 76 143 90 71 144 87 73 144 79 77 144 91 75 143 115 65 149 93 80 146 98 75 145 112 70 143 93 70 143 78 74 144 89 76 145 82 77 145 103 72 145 106 72 144 91 76 144 98 73 144 88 76 156 128 76 140 125 62 145 116 71 146 113 70 142 98 69 141 96 70 146 91 76 145 117 67 144 83 75 144 88 74 143 75 73 144 99 69 148 90 76 0 0 0 0 0 0 146 84 79 147 91 80 145 100 72 146 104 73 145 86 78 144 103 73 144 106 71 144 89 77 0 0 0 0 0 0 
151 115 73 144 113 66 135 92 65 143 94 73 140 94 70 145 91 76 150 118 77 147 116 71 143 104 71 149 121 67 149 117 71 151 131 67 151 133 70 140 110 68 133 92 68 139 111 68 143 102 74 148 97 77 146 115 69 145 80 79 145 85 77 144 86 74 143 78 74 145 88 75 146 91 78 145 85 78 143 93 74 145 80 79 145 83 77 142 99 67 144 85 73 144 77 76 143 82 75 143 93 73 143 85 75 146 93 79 145 87 79 144 95 73 145 82 77 145 87 77 149 120 71 147 125 67 146 113 69 144 77 75 143 145 51 0 0 0 0 0 0 0 0 0 0 0 0 0 0 0 0 0 0 0 0 0 0 0 0 0 0 0 149 85 85 146 87 79 145 104 71 145 111 68 146 116 69 139 97 68 145 96 75 145 84 79 0 0 0 0 0 0 
149 140 59 135 122 54 152 137 64 145 84 76 144 82 77 148 109 71 144 105 71 144 89 76 144 97 77 147 119 70 141 115 66 142 105 70 133 119 55 136 98 68 140 114 64 146 85 80 147 94 81 146 86 81 147 94 80 146 82 79 145 80 79 146 90 76 145 86 74 145 95 75 144 105 71 146 84 79 146 81 80 146 80 79 144 77 76 142 79 71 142 77 73 145 78 78 144 77 77 141 79 75 144 77 77 0 0 0 0 0 0 0 0 0 0 0 0 0 0 0 0 0 0 0 0 0 0 0 0 0 0 0 0 0 0 0 0 0 0 0 0 0 0 0 0 0 0 0 0 0 0 0 0 0 0 0 0 0 0 0 0 0 147 83 82 141 100 70 147 121 67 143 124 62 145 101 72 145 83 76 143 92 73 145 84 79 156 163 52 0 0 0 
151 118 77 146 111 73 149 130 61 141 96 71 140 105 67 145 130 62 145 98 73 145 92 76 146 103 75 152 133 67 149 138 61 135 115 59 138 116 60 134 110 60 142 101 71 146 85 80 148 96 78 147 89 81 146 86 81 146 84 80 145 90 78 147 83 82 149 96 76 152 125 69 147 93 77 146 81 80 0 0 0 0 0 0 0 0 0 0 0 0 0 0 0 0 0 0 0 0 0 0 0 0 0 0 0 0 0 0 0 0 0 0 0 0 0 0 0 0 0 0 0 0 0 0 0 0 0 0 0 0 0 0 0 0 0 0 0 0 0 0 0 0 0 0 0 0 0 0 0 0 0 0 0 0 0 0 0 0 0 0 0 0 147 82 81 145 92 76 143 94 73 146 111 71 141 107 66 144 78 77 145 81 78 143 90 76 121 122 38 0 0 0 
147 102 79 142 116 67 145 86 79 144 87 78 146 85 79 147 100 75 149 122 68 149 121 68 142 107 66 144 108 70 133 116 57 138 92 71 145 87 76 142 97 73 142 97 72 146 84 80 144 77 76 147 84 82 148 84 84 147 82 81 146 85 78 147 87 81 147 88 81 148 86 85 148 87 85 147 84 82 146 81 80 146 84 79 144 88 77 143 84 75 144 80 77 140 102 68 143 108 69 143 111 68 144 102 70 144 85 74 146 96 74 144 97 71 141 89 70 142 81 75 144 112 67 148 94 79 150 100 77 146 88 78 147 84 80 0 0 0 0 0 0 0 0 0 0 0 0 0 0 0 0 0 0 0 0 0 0 0 0 0 0 0 146 97 75 145 102 73 145 82 78 147 109 71 146 90 76 145 86 76 145 82 79 146 85 81 122 127 36 0 0 0 
147 91 82 145 118 67 144 114 70 147 96 76 146 80 80 145 84 79 147 97 78 148 84 83 146 80 79 149 102 75 147 86 81 146 82 81 143 86 77 144 84 76 144 96 73 145 81 78 148 97 81 148 96 79 148 93 82 146 91 78 146 95 75 145 95 75 147 84 82 148 100 80 147 97 82 147 93 80 145 88 79 146 95 78 145 86 79 144 87 76 145 83 78 142 101 71 145 94 73 145 95 73 145 82 78 145 86 76 143 78 74 142 97 69 145 100 69 144 80 77 147 90 75 147 89 78 147 94 77 147 88 80 146 81 81 147 83 82 148 86 83 146 82 81 146 82 80 145 83 78 143 98 72 145 90 76 0 0 0 0 0 0 142 96 74 146 88 79 146 82 80 145 88 78 145 97 75 145 87 77 145 95 76 138 101 67 142 113 63 0 0 0 
139 121 59 143 122 60 151 96 80 147 84 83 146 81 81 145 79 78 147 82 82 147 82 81 145 81 78 144 91 76 147 101 75 148 87 82 146 81 80 145 82 77 145 84 77 146 88 78 145 81 78 148 83 83 145 82 78 144 93 74 145 114 68 146 113 69 147 96 78 148 98 79 148 95 82 147 90 83 146 88 79 145 88 78 146 85 79 145 79 77 145 80 78 144 83 77 145 80 75 145 96 73 145 81 79 146 88 78 145 104 70 142 95 67 143 82 73 144 77 76 143 78 74 145 92 76 145 86 77 146 81 81 146 85 81 150 90 83 147 84 83 145 86 80 145 88 78 147 90 79 145 101 74 146 82 79 0 0 0 0 0 0 141 112 65 144 102 73 148 117 71 148 112 73 149 121 71 144 93 75 144 89 75 144 120 65 139 111 61 0 0 0 
138 118 57 142 104 70 147 82 82 148 88 84 146 93 78 145 101 72 147 95 77 147 87 80 147 85 82 156 122 70 149 118 71 146 84 79 145 80 80 144 77 77 146 80 79 146 92 77 145 81 78 147 82 82 145 84 77 145 96 73 141 98 66 143 123 63 146 116 71 147 83 82 144 99 77 143 107 73 147 104 75 146 82 80 144 87 76 144 89 76 145 79 79 145 80 79 146 89 77 146 100 73 145 83 77 144 93 72 146 87 76 147 97 73 140 104 65 142 104 66 141 100 67 141 112 65 145 82 77 146 80 79 150 99 81 148 95 80 147 83 81 146 82 81 0 0 0 0 0 0 0 0 0 0 0 0 0 0 0 0 0 0 149 101 80 148 95 80 147 98 78 147 83 82 149 102 78 145 82 77 144 93 75 148 118 69 146 103 70 0 0 0 
145 123 63 146 86 81 147 87 82 147 100 78 156 129 70 156 113 79 147 96 78 146 113 68 146 92 77 145 83 77 146 99 74 151 108 74 145 85 77 145 81 78 145 80 79 145 80 80 146 82 80 145 90 77 145 102 71 152 111 75 143 78 75 143 91 73 134 106 67 138 97 71 0 0 0 0 0 0 0 0 0 0 0 0 0 0 0 0 0 0 0 0 0 0 0 0 0 0 0 0 0 0 0 0 0 0 0 0 0 0 0 0 0 0 0 0 0 0 0 0 0 0 0 0 0 0 0 0 0 0 0 0 0 0 0 0 0 0 0 0 0 0 0 0 0 0 0 0 0 0 0 0 0 0 0 0 0 0 0 0 0 0 147 88 81 148 110 76 147 94 78 147 89 80 149 107 75 142 100 73 144 110 69 143 93 71 142 81 72 0 0 0 
146 83 82 147 84 83 147 90 83 147 86 82 148 99 77 155 107 79 150 116 70 153 135 62 148 120 68 145 79 78 147 107 69 145 118 63 145 84 77 143 100 70 146 81 81 145 78 78 145 84 77 144 106 71 139 107 63 144 95 72 143 85 72 145 86 77 135 112 61 144 106 74 147 84 82 146 97 77 143 88 75 144 78 77 144 89 76 145 83 79 144 85 77 145 95 74 144 81 77 0 0 0 0 0 0 0 0 0 0 0 0 0 0 0 0 0 0 0 0 0 0 0 0 0 0 0 0 0 0 0 0 0 0 0 0 0 0 0 0 0 0 0 0 0 0 0 0 0 0 0 0 0 0 0 0 0 0 0 0 0 0 0 146 101 76 149 117 76 149 98 82 150 104 81 149 127 70 145 123 67 143 103 70 144 82 76 144 77 77 0 0 0 
144 98 77 146 100 78 145 106 73 147 86 82 147 83 83 146 81 80 148 100 76 148 122 69 144 107 68 141 97 72 144 92 75 142 114 63 147 87 80 141 85 73 144 81 77 143 92 72 144 80 76 143 85 75 142 93 70 144 77 75 144 84 75 144 80 77 144 102 72 141 100 74 146 99 77 148 103 77 143 80 75 144 78 77 143 109 68 142 112 67 142 89 73 143 85 74 143 87 75 144 85 76 143 101 72 143 91 75 145 83 79 145 87 76 131 100 67 145 96 77 146 100 74 146 102 74 146 131 60 0 0 0 0 0 0 0 0 0 0 0 0 0 0 0 0 0 0 0 0 0 0 0 0 0 0 0 0 0 0 0 0 0 149 100 82 149 113 76 147 90 81 147 88 82 145 94 76 144 106 71 142 111 66 145 107 71 148 88 80 0 0 0 
141 117 63 146 91 77 140 97 66 140 96 67 147 88 80 146 83 82 144 102 73 145 100 74 142 109 67 142 94 73 145 85 78 153 135 65 146 86 78 142 108 64 144 96 73 144 93 74 144 83 75 143 86 72 144 85 73 144 81 75 143 78 74 144 83 75 146 92 75 146 87 80 146 88 80 144 96 74 143 84 73 146 98 76 143 90 77 144 93 77 145 87 76 145 79 78 145 108 73 146 81 80 146 87 79 144 86 78 145 104 74 143 97 73 142 120 67 143 96 73 143 86 75 144 103 71 149 115 72 152 106 80 144 114 65 134 95 59 142 82 71 143 117 65 146 93 78 147 92 83 146 104 78 147 115 71 0 0 0 0 0 0 147 108 75 144 118 70 144 102 78 147 97 79 146 105 74 145 82 78 145 88 77 146 109 74 143 92 74 0 0 0 
0 0 0 145 79 78 143 106 65 143 125 59 143 110 67 146 103 74 147 103 73 142 106 69 135 98 65 146 88 78 147 82 82 147 88 82 147 90 79 145 83 78 145 80 78 144 96 73 145 86 77 144 78 75 144 83 74 143 88 73 144 88 74 145 86 76 146 86 78 142 110 67 147 86 81 142 103 68 148 106 70 144 100 71 143 115 68 142 104 69 141 99 71 146 82 80 146 90 79 147 85 82 146 85 81 142 100 75 141 101 72 145 86 79 134 99 68 142 108 70 140 101 70 144 93 75 146 96 76 141 85 75 142 93 70 140 93 69 142 81 73 143 85 72 145 79 78 145 91 77 143 95 74 143 108 69 140 137 53 0 0 0 145 102 74 151 123 76 147 111 78 141 101 73 143 110 68 146 100 73 144 79 77 145 107 70 136 112 60 0 0 0 
0 0 0 145 80 77 144 98 68 137 108 61 145 122 60 145 118 64 145 110 70 142 100 72 137 109 63 143 98 74 147 84 82 147 83 82 150 109 75 146 80 80 145 78 78 144 81 78 146 87 77 143 86 75 146 92 74 145 93 75 145 81 76 147 108 69 146 106 71 144 98 72 145 82 79 144 97 73 145 97 75 145 88 76 141 105 70 141 91 73 146 85 81 145 106 75 147 84 82 149 93 83 146 91 78 145 85 78 146 95 79 147 82 82 145 85 79 144 97 78 145 90 77 145 85 79 147 105 72 144 104 68 144 87 74 147 98 72 145 113 68 145 82 79 145 109 72 141 99 68 143 85 72 146 84 80 0 0 0 0 0 0 147 84 82 147 91 82 141 121 69 142 111 70 146 99 75 144 98 75 145 85 79 144 93 75 143 123 59 0 0 0 
0 0 0 145 98 74 144 88 72 142 99 67 146 93 77 144 101 74 147 102 75 142 123 59 144 86 77 147 82 81 145 94 78 143 99 72 146 92 78 141 100 68 145 83 76 145 78 77 145 83 78 146 81 80 142 86 74 149 100 76 144 77 76 146 107 66 144 98 69 143 89 72 145 97 71 146 108 71 143 120 62 146 91 77 145 84 79 143 84 77 144 98 72 141 102 71 147 107 75 147 86 82 147 94 78 144 98 74 138 115 64 141 106 71 146 87 79 147 83 81 148 99 76 146 92 77 149 106 73 148 106 71 144 86 76 145 78 77 141 95 71 142 102 70 139 97 69 140 86 72 142 92 71 139 104 66 0 0 0 0 0 0 148 86 83 146 85 80 144 101 75 140 98 72 146 100 75 146 96 78 145 93 78 159 133 85 144 118 66 0 0 0 
0 0 0 146 94 72 148 97 72 149 116 74 147 109 72 144 86 77 146 93 75 141 102 67 139 101 66 146 82 81 145 92 77 145 84 77 144 99 73 142 118 63 143 87 75 145 81 77 146 81 80 148 97 79 145 104 72 144 83 77 144 80 76 144 85 73 144 76 75 144 83 73 145 110 68 141 113 65 146 129 60 147 96 77 145 92 79 139 90 70 150 118 71 145 89 75 149 97 81 147 84 82 145 86 78 144 86 77 146 110 74 146 137 59 142 102 72 148 96 80 150 125 70 145 109 71 145 92 76 143 95 72 144 95 73 145 82 78 144 123 66 136 107 64 145 83 77 144 89 74 138 115 62 139 141 51 0 0 0 0 0 0 146 83 81 146 84 79 145 110 72 139 104 69 145 105 75 143 112 70 139 114 66 141 111 72 143 103 72 0 0 0 
0 0 0 146 112 63 146 108 69 150 122 66 145 82 78 148 93 78 145 83 78 146 112 66 147 112 69 145 111 69 147 118 68 145 82 77 146 81 80 146 96 78 144 105 71 145 86 78 144 89 75 138 111 65 139 105 68 143 88 74 143 84 73 144 82 76 145 77 77 138 98 65 146 116 65 148 124 61 147 118 69 145 91 78 145 93 78 145 89 78 143 92 73 145 91 75 146 99 76 145 89 78 144 88 76 143 110 67 147 100 75 144 111 72 146 106 75 143 108 71 146 98 74 143 121 64 143 111 66 143 99 72 136 114 58 143 96 71 143 109 69 145 81 78 144 78 78 144 85 74 143 79 75 0 0 0 0 0 0 0 0 0 145 94 75 146 85 81 147 89 80 146 85 81 147 100 79 147 89 80 145 89 78 143 98 75 143 108 70 0 0 0 
0 0 0 149 116 68 149 120 63 145 98 70 146 93 74 143 103 69 144 79 78 145 80 79 147 105 71 143 122 62 146 126 62 144 93 73 144 105 71 146 95 78 145 80 80 145 101 72 144 107 70 147 87 80 146 82 80 146 80 80 144 86 74 144 100 70 146 84 80 144 119 64 144 118 64 143 79 74 146 102 71 142 121 62 152 130 68 146 110 71 142 114 62 143 110 65 138 119 59 145 93 76 146 91 78 139 106 66 140 111 65 145 99 74 144 109 69 145 86 76 143 104 71 140 110 67 139 118 61 144 90 76 145 92 76 145 110 71 143 82 76 145 80 79 144 79 78 143 104 70 142 88 75 0 0 0 0 0 0 0 0 0 146 95 80 147 84 82 148 85 85 148 86 85 148 92 83 140 107 69 145 90 78 146 81 80 145 100 72 0 0 0 
0 0 0 0 0 0 143 77 74 144 87 75 143 95 71 145 115 66 143 82 75 147 91 77 147 100 72 145 113 66 142 100 68 143 89 74 144 109 67 149 112 72 145 81 78 142 88 74 142 99 69 146 93 78 149 104 75 147 86 81 145 94 78 147 108 74 148 89 81 144 94 73 144 112 69 143 106 71 143 133 58 151 135 63 144 125 61 148 128 64 143 94 70 141 113 65 148 109 72 146 85 79 147 95 77 146 111 69 147 113 70 142 117 63 141 116 63 143 109 69 144 85 76 145 81 79 136 117 60 140 113 65 144 86 75 144 91 75 145 85 78 143 98 73 147 115 70 145 100 73 0 0 0 0 0 0 0 0 0 0 0 0 147 95 82 148 86 85 148 85 85 150 88 88 144 93 80 146 118 69 145 108 74 147 87 81 145 83 79 0 0 0 
0 0 0 0 0 0 143 82 73 143 84 72 145 100 71 144 113 65 147 108 71 144 99 72 147 93 75 143 82 74 145 86 76 143 78 75 143 76 75 141 102 66 143 82 75 145 82 78 145 81 78 146 87 81 146 92 79 147 83 82 147 84 83 146 83 81 146 83 81 146 83 81 145 99 77 144 112 69 145 122 63 140 98 67 146 85 76 148 120 66 143 87 72 143 89 74 145 80 78 144 102 72 143 99 73 143 124 64 145 119 67 141 124 61 145 137 57 142 116 63 143 88 73 143 114 66 139 116 62 134 111 59 143 93 73 146 80 79 144 86 76 141 101 70 145 109 71 148 119 67 0 0 0 0 0 0 0 0 0 0 0 0 150 94 85 147 85 83 147 85 83 146 94 79 147 83 83 147 103 77 146 94 79 148 109 76 144 99 75 143 142 54 
0 0 0 0 0 0 142 71 71 143 78 73 149 116 68 147 91 76 146 90 75 146 87 77 144 78 77 144 76 75 144 83 75 143 77 75 143 76 75 144 104 69 145 101 71 145 80 79 142 100 68 146 95 79 145 89 80 145 87 79 145 89 79 146 83 81 145 86 78 146 83 81 147 111 73 146 123 65 141 124 56 147 103 73 146 84 74 144 92 74 145 81 78 143 89 75 143 96 73 130 102 62 143 128 60 141 110 67 141 119 64 140 117 62 140 124 59 141 95 70 140 93 70 140 110 66 145 85 77 142 87 73 144 80 76 142 98 70 143 98 69 144 83 76 144 89 78 150 115 77 0 0 0 0 0 0 0 0 0 0 0 0 146 108 76 143 101 73 142 103 72 145 114 72 147 91 80 139 103 69 145 91 78 143 112 69 145 100 76 137 134 49 
0 0 0 0 0 0 141 70 70 143 88 71 150 113 70 157 111 78 152 99 80 145 78 78 145 87 76 143 107 70 144 84 76 144 79 78 146 97 74 144 78 77 145 80 79 144 82 78 144 90 76 146 96 78 147 82 82 146 80 80 147 83 82 146 86 79 143 104 70 147 110 72 149 121 69 148 111 74 148 129 63 142 122 62 147 106 72 147 111 72 147 85 83 147 84 82 140 92 72 138 122 61 140 121 62 138 111 64 140 116 65 134 121 57 141 124 59 138 108 63 135 119 56 135 119 56 142 94 70 143 90 75 144 112 65 145 106 68 146 119 65 142 83 74 146 86 78 0 0 0 0 0 0 0 0 0 0 0 0 0 0 0 147 99 81 140 123 65 142 118 68 147 110 75 145 104 74 143 115 68 146 95 78 144 114 69 145 97 77 123 119 41 
0 0 0 0 0 0 141 88 70 148 102 75 145 96 71 149 100 75 145 83 78 142 85 74 145 81 78 145 99 72 146 109 72 145 112 71 144 91 76 145 78 78 145 80 79 144 106 71 144 102 75 144 106 71 144 93 76 146 81 80 146 83 80 147 102 74 141 113 65 148 122 70 145 113 70 146 89 81 148 106 76 147 102 74 145 117 67 140 113 64 147 108 72 142 102 73 134 103 67 139 102 70 144 127 65 141 123 61 142 116 67 138 124 59 141 121 63 146 83 79 142 92 74 134 100 62 143 83 74 139 90 70 143 91 71 146 83 74 147 120 67 141 111 64 138 99 69 0 0 0 0 0 0 0 0 0 0 0 0 0 0 0 148 89 84 142 118 68 143 114 70 141 111 68 146 88 80 147 85 82 145 109 72 139 113 65 144 104 73 153 156 44 
0 0 0 0 0 0 145 88 76 144 103 70 146 113 70 148 90 81 145 79 78 141 80 73 145 80 78 144 77 75 143 79 75 141 99 69 143 106 71 146 82 80 146 80 80 146 84 81 146 82 82 147 83 82 146 84 81 146 81 80 147 83 81 147 95 80 140 99 72 148 113 73 140 95 73 142 111 67 147 126 63 150 122 70 148 125 69 148 126 71 159 132 70 145 114 67 137 113 63 143 127 68 132 116 60 138 116 62 142 116 68 148 128 67 140 123 60 143 97 73 147 113 67 149 102 72 145 83 74 144 80 77 142 89 71 142 76 72 143 112 63 145 131 59 151 139 63 0 0 0 0 0 0 0 0 0 0 0 0 0 0 0 148 84 84 147 90 81 147 100 77 147 86 82 146 81 81 148 101 78 144 98 77 140 109 68 141 113 67 0 0 0 
0 0 0 0 0 0 0 0 0 144 96 73 150 109 75 146 82 82 146 81 80 144 82 78 145 85 77 143 90 72 143 78 75 144 78 77 145 83 77 146 95 74 146 93 77 146 86 81 148 87 82 146 86 80 145 98 77 147 83 82 147 91 80 142 113 67 141 102 71 148 135 62 129 103 59 147 125 65 139 107 68 141 123 62 150 122 73 148 102 79 148 117 70 145 107 71 145 123 66 139 115 72 138 124 63 144 107 71 150 118 73 148 122 70 148 129 65 142 122 62 143 120 59 146 101 70 144 85 73 142 83 73 142 74 71 142 85 69 142 94 69 144 127 58 0 0 0 0 0 0 0 0 0 0 0 0 0 0 0 0 0 0 0 0 0 146 89 81 146 88 81 142 105 73 145 89 79 149 108 74 149 103 78 147 86 82 146 83 81 0 0 0 
0 0 0 0 0 0 0 0 0 145 103 74 147 84 82 147 86 84 146 82 81 144 89 77 145 85 76 144 91 74 144 80 77 146 88 76 145 81 79 146 91 75 146 89 78 144 96 75 147 90 79 146 82 79 146 82 80 148 103 76 144 101 73 148 104 77 146 97 76 149 131 60 147 106 72 144 104 72 145 97 76 145 101 75 148 94 80 143 100 74 139 100 70 144 92 74 138 114 63 134 111 63 129 115 58 144 104 73 147 129 64 147 118 70 142 123 66 140 113 65 143 105 68 145 82 77 143 77 74 143 74 74 143 80 71 142 90 66 145 106 68 147 112 69 0 0 0 0 0 0 0 0 0 0 0 0 0 0 0 0 0 0 0 0 0 144 96 78 140 103 72 144 116 65 149 106 77 148 98 80 148 87 84 147 83 82 148 95 80 0 0 0 
0 0 0 0 0 0 0 0 0 144 97 75 146 83 81 146 88 80 143 95 74 144 98 74 143 101 71 150 107 74 144 81 78 145 82 76 146 82 80 146 82 82 146 81 81 144 94 78 145 96 73 145 79 78 145 80 78 142 95 71 145 82 78 146 81 79 146 86 80 145 83 78 146 80 80 146 80 80 146 95 77 145 94 77 146 88 79 146 85 79 145 82 78 149 102 75 145 91 76 147 90 79 143 112 69 148 127 67 143 125 64 151 132 64 143 124 63 142 96 73 139 105 66 146 112 70 145 82 78 144 77 77 144 80 74 143 117 64 143 127 58 146 144 46 0 0 0 0 0 0 0 0 0 0 0 0 0 0 0 0 0 0 0 0 0 147 82 82 146 85 81 146 109 73 148 105 78 148 94 82 147 83 82 144 112 72 152 156 58 0 0 0 
0 0 0 0 0 0 0 0 0 146 82 80 149 108 76 146 96 79 144 90 77 147 95 78 146 111 71 143 122 60 144 83 76 146 83 79 145 98 74 146 87 80 145 92 78 144 88 75 143 89 73 143 96 72 145 85 76 144 81 77 145 79 78 146 84 79 146 83 81 148 99 77 145 80 79 145 80 79 135 106 65 146 107 72 146 87 78 146 81 80 145 80 78 145 80 79 145 106 72 142 95 75 146 84 80 148 97 80 146 102 77 150 114 75 145 120 67 146 102 74 144 98 73 141 122 63 137 102 67 146 102 74 145 100 75 141 118 65 142 121 62 0 0 0 0 0 0 0 0 0 0 0 0 0 0 0 0 0 0 0 0 0 0 0 0 0 0 0 146 102 76 146 99 77 147 102 76 148 88 81 145 94 77 141 96 73 0 0 0 0 0 0 
0 0 0 0 0 0 0 0 0 146 82 82 145 90 79 146 96 78 146 83 82 146 85 81 155 118 79 147 97 78 145 83 77 146 81 81 146 85 79 143 98 73 145 86 78 144 83 77 144 97 75 149 117 74 144 83 74 144 78 76 146 98 76 152 124 72 147 105 74 146 82 78 145 84 78 146 82 80 143 98 74 141 111 68 144 103 75 145 80 79 144 76 75 145 93 74 141 117 64 143 92 75 147 85 81 145 85 79 147 90 79 150 111 76 142 108 71 142 126 63 145 106 71 138 123 57 140 100 69 146 87 78 144 104 72 148 111 73 143 115 69 0 0 0 0 0 0 0 0 0 0 0 0 0 0 0 0 0 0 0 0 0 0 0 0 0 0 0 147 113 73 143 112 69 147 96 78 141 104 69 144 92 77 142 99 71 0 0 0 0 0 0 
0 0 0 0 0 0 0 0 0 148 102 80 146 118 72 150 115 76 144 99 76 145 92 79 146 119 69 141 107 69 144 87 79 146 85 80 145 84 79 146 89 79 146 86 79 144 91 76 142 103 73 142 83 76 144 77 77 144 77 76 145 101 70 149 111 74 147 114 71 141 92 72 145 112 70 141 99 73 146 83 81 147 89 79 149 122 73 144 83 77 142 89 73 144 76 75 144 87 76 145 99 77 144 109 73 143 96 75 142 118 66 146 116 71 146 94 76 142 117 63 146 126 64 142 122 63 140 102 67 143 89 76 145 85 78 144 104 74 0 0 0 0 0 0 0 0 0 0 0 0 0 0 0 0 0 0 0 0 0 0 0 0 0 0 0 0 0 0 146 82 80 143 90 77 145 79 78 141 91 74 142 108 69 140 101 71 0 0 0 0 0 0 
0 0 0 0 0 0 0 0 0 168 168 66 153 137 68 144 114 69 144 93 78 147 83 82 146 85 81 145 98 78 144 88 79 147 88 82 149 106 77 145 104 74 145 88 78 143 98 74 147 119 70 144 78 77 144 77 77 143 82 74 143 81 75 145 82 77 145 82 78 145 88 77 149 125 73 143 102 73 148 94 82 147 86 82 137 110 65 139 101 69 143 90 74 144 82 75 142 110 66 143 95 74 141 115 68 139 109 67 142 99 73 140 93 73 145 88 78 133 107 62 139 109 67 144 87 76 143 96 73 146 92 77 147 84 82 145 101 76 0 0 0 0 0 0 0 0 0 0 0 0 0 0 0 0 0 0 0 0 0 0 0 0 0 0 0 0 0 0 146 81 80 136 98 69 146 85 80 146 82 80 145 89 76 122 125 38 0 0 0 0 0 0 
0 0 0 0 0 0 0 0 0 0 0 0 140 121 63 144 119 66 146 100 81 145 88 78 145 99 77 147 85 83 148 93 82 146 89 81 147 85 81 144 115 76 144 88 77 147 107 74 139 96 70 140 90 71 143 89 73 143 86 73 144 81 75 146 81 80 145 80 77 142 91 74 142 97 73 146 98 79 143 101 76 146 88 82 139 112 67 149 134 64 148 108 70 142 89 72 139 114 61 141 98 71 142 103 73 147 116 73 146 85 81 144 110 71 145 99 75 145 108 72 144 96 75 142 101 70 143 114 68 146 95 80 148 85 85 146 93 80 0 0 0 0 0 0 0 0 0 0 0 0 0 0 0 0 0 0 0 0 0 0 0 0 0 0 0 0 0 0 0 0 0 146 86 82 146 85 81 146 86 80 144 102 75 0 0 0 0 0 0 0 0 0 
0 0 0 0 0 0 0 0 0 0 0 0 150 109 78 146 105 77 153 115 80 145 92 78 147 86 81 147 91 83 148 94 81 148 116 77 147 100 79 146 110 75 147 91 78 144 85 77 145 81 78 144 104 71 142 84 75 144 81 76 143 84 75 142 96 73 145 80 77 147 103 74 145 105 73 146 99 79 149 94 85 147 89 84 141 104 73 144 102 75 138 105 66 143 90 72 145 98 74 146 103 75 145 104 73 146 116 70 145 97 77 146 83 79 146 106 73 142 93 74 145 88 78 141 106 68 146 91 79 147 92 81 147 87 84 0 0 0 0 0 0 0 0 0 0 0 0 0 0 0 0 0 0 0 0 0 0 0 0 0 0 0 0 0 0 0 0 0 0 0 0 147 83 83 147 85 82 144 99 78 148 94 84 0 0 0 0 0 0 0 0 0 
0 0 0 0 0 0 0 0 0 0 0 0 147 97 79 143 97 78 145 90 78 146 87 80 144 108 72 151 134 68 146 102 78 147 92 81 147 85 82 145 84 79 148 98 78 146 82 81 147 83 82 144 93 76 145 82 78 144 93 75 145 84 78 142 91 74 144 94 75 143 97 74 142 119 65 142 118 69 140 91 78 146 84 82 147 83 82 146 92 76 145 85 77 144 77 77 146 95 76 146 111 73 141 106 69 146 122 67 146 100 76 145 93 76 143 101 71 146 85 79 145 88 79 139 102 68 145 85 79 146 84 79 146 85 81 0 0 0 0 0 0 0 0 0 0 0 0 0 0 0 0 0 0 0 0 0 0 0 0 0 0 0 0 0 0 0 0 0 0 0 0 146 83 81 145 91 79 144 96 78 144 88 79 0 0 0 0 0 0 0 0 0 
0 0 0 0 0 0 0 0 0 0 0 0 145 105 71 142 91 72 143 98 71 150 118 72 145 100 75 145 107 74 148 88 84 146 87 82 144 93 77 145 104 77 146 105 74 147 83 83 147 83 82 147 84 81 147 87 80 146 85 79 145 99 76 142 88 75 143 97 73 148 98 78 143 120 65 143 105 73 147 91 80 145 103 76 142 87 77 145 86 78 145 81 77 144 80 75 143 107 70 141 110 67 146 90 78 146 80 79 145 88 79 145 82 77 145 91 75 146 92 78 146 88 79 145 83 79 145 86 79 146 82 81 146 86 81 0 0 0 0 0 0 0 0 0 0 0 0 0 0 0 0 0 0 0 0 0 0 0 0 0 0 0 0 0 0 0 0 0 0 0 0 0 0 0 147 86 82 146 86 81 122 121 47 0 0 0 0 0 0 0 0 0 
0 0 0 0 0 0 0 0 0 0 0 0 144 78 77 144 79 76 152 128 67 152 123 74 148 108 77 146 88 81 148 97 81 146 101 75 151 129 75 147 119 77 144 85 79 145 80 79 146 80 80 146 82 79 145 81 77 144 88 75 139 94 73 145 86 77 144 96 75 145 85 79 139 116 65 142 111 69 146 86 81 129 94 64 143 90 77 144 90 77 139 107 67 142 98 70 139 104 65 144 80 75 146 81 80 146 84 80 146 85 80 145 80 79 145 86 76 144 81 77 144 92 75 132 111 60 151 123 74 145 91 80 0 0 0 0 0 0 0 0 0 0 0 0 0 0 0 0 0 0 0 0 0 0 0 0 0 0 0 0 0 0 0 0 0 0 0 0 0 0 0 0 0 0 145 97 76 146 103 76 0 0 0 0 0 0 0 0 0 0 0 0 
0 0 0 0 0 0 0 0 0 0 0 0 0 0 0 0 0 0 0 0 0 0 0 0 0 0 0 0 0 0 148 86 85 142 99 72 142 101 70 148 114 77 146 85 80 146 81 81 145 78 78 145 80 80 145 91 75 128 94 63 135 104 66 144 83 76 145 79 78 142 89 75 151 124 73 140 127 58 137 91 71 141 117 68 146 81 80 145 81 78 144 100 72 144 92 76 145 97 70 144 77 76 145 82 79 144 92 76 143 95 74 143 87 75 145 90 75 145 79 78 145 81 78 145 92 76 141 102 73 144 93 78 0 0 0 0 0 0 0 0 0 0 0 0 0 0 0 0 0 0 0 0 0 0 0 0 0 0 0 0 0 0 0 0 0 0 0 0 0 0 0 0 0 0 147 82 81 146 87 80 0 0 0 0 0 0 0 0 0 0 0 0 
0 0 0 0 0 0 0 0 0 0 0 0 0 0 0 0 0 0 0 0 0 0 0 0 0 0 0 0 0 0 0 0 0 0 0 0 0 0 0 0 0 0 0 0 0 0 0 0 0 0 0 0 0 0 0 0 0 0 0 0 0 0 0 0 0 0 0 0 0 0 0 0 0 0 0 0 0 0 0 0 0 147 108 74 147 95 77 145 79 78 143 97 71 142 117 63 143 88 74 145 88 77 142 100 73 145 110 72 145 80 78 145 81 78 145 85 77 144 78 77 143 102 72 146 82 79 145 89 77 0 0 0 0 0 0 0 0 0 0 0 0 0 0 0 0 0 0 0 0 0 0 0 0 0 0 0 0 0 0 0 0 0 0 0 0 0 0 0 0 0 0 0 0 0 0 0 0 0 0 0 0 0 0 0 0 0 0 0 0 0 0 0 
