P3
64 64
255
0 0 0 0 0 0 0 0 0 0 0 0 0 0 0 0 0 0 0 0 0 0 0 0 0 0 0 0 0 0 0 0 0 0 0 0 0 0 0 0 0 0 0 0 0 0 0 0 0 0 0 0 0 0 0 0 0 0 0 0 0 0 0 0 0 0 0 0 0 0 0 0 0 0 0 0 0 0 0 0 0 0 0 0 0 0 0 0 0 0 0 0 0 220 220 220 209 209 209 223 223 223 216 216 216 217 217 217 205 205 205 218 218 218 221 221 221 213 213 213 220 220 220 218 218 218 216 216 216 0 0 0 0 0 0 0 0 0 0 0 0 0 0 0 0 0 0 0 0 0 202 202 202 219 219 219 207 207 207 218 218 218 213 213 213 0 0 0 0 0 0 224 224 224 0 0 0 0 0 0 0 0 0 0 0 0 0 0 0 0 0 0 
0 0 0 0 0 0 0 0 0 0 0 0 0 0 0 0 0 0 0 0 0 0 0 0 0 0 0 0 0 0 0 0 0 0 0 0 0 0 0 239 239 239 216 216 216 207 207 207 204 204 204 206 206 206 216 216 216 205 205 205 207 207 207 207 207 207 208 208 208 208 208 208 224 224 224 217 217 217 210 210 210 215 215 215 213 213 213 209 209 209 211 211 211 226 226 226 230 230 230 231 231 231 225 225 225 225 225 225 224 224 224 226 226 226 227 227 227 217 217 217 232 232 232 225 225 225 214 214 214 223 223 223 0 0 0 0 0 0 0 0 0 0 0 0 203 203 203 209 209 209 208 208 208 220 220 220 215 215 215 217 217 217 221 221 221 0 0 0 0 0 0 229 229 229 239 239 239 0 0 0 0 0 0 0 0 0 0 0 0 0 0 0 
0 0 0 0 0 0 0 0 0 0 0 0 207 207 207 207 207 207 207 207 207 206 206 206 223 223 223 220 220 220 213 213 213 210 210 210 212 212 212 211 211 211 220 220 220 214 214 214 208 208 208 209 209 209 228 228 228 212 212 212 210 210 210 208 208 208 215 215 215 213 213 213 209 209 209 209 209 209 210 210 210 213 213 213 230 230 230 211 211 211 219 219 219 230 230 230 211 211 211 214 214 214 218 218 218 213 213 213 222 222 222 220 220 220 223 223 223 210 210 210 213 213 213 225 225 225 217 217 217 219 219 219 0 0 0 0 0 0 0 0 0 0 0 0 203 203 203 204 204 204 215 215 215 208 208 208 206 206 206 206 206 206 207 207 207 239 239 239 201 201 201 210 210 210 201 201 201 0 0 0 0 0 0 0 0 0 0 0 0 0 0 0 
0 0 0 0 0 0 0 0 0 0 0 0 206 206 206 207 207 207 213 213 213 212 212 212 209 209 209 215 215 215 225 225 225 223 223 223 208 208 208 211 211 211 217 217 217 208 208 208 218 218 218 212 212 212 212 212 212 216 216 216 215 215 215 215 215 215 217 217 217 216 216 216 218 218 218 218 218 218 212 212 212 222 222 222 209 209 209 207 207 207 206 206 206 213 213 213 204 204 204 210 210 210 224 224 224 225 225 225 207 207 207 206 206 206 208 208 208 221 221 221 219 219 219 205 205 205 216 216 216 231 231 231 0 0 0 0 0 0 0 0 0 0 0 0 206 206 206 207 207 207 206 206 206 205 205 205 214 214 214 210 210 210 215 215 215 221 221 221 206 206 206 203 203 203 202 202 202 0 0 0 0 0 0 0 0 0 0 0 0 0 0 0 
0 0 0 0 0 0 0 0 0 0 0 0 207 207 207 206 206 206 213 213 213 211 211 211 207 207 207 209 209 209 236 236 236 219 219 219 212 212 212 232 232 232 230 230 230 217 217 217 219 219 219 218 218 218 231 231 231 234 234 234 228 228 228 226 226 226 225 225 225 219 219 219 209 209 209 208 208 208 220 220 220 212 212 212 209 209 209 212 212 212 224 224 224 210 210 210 214 214 214 212 212 212 207 207 207 210 210 210 217 217 217 215 215 215 228 228 228 223 223 223 223 223 223 214 214 214 212 212 212 207 207 207 211 211 211 0 0 0 0 0 0 0 0 0 219 219 219 219 219 219 207 207 207 206 206 206 215 215 215 215 215 215 231 231 231 230 230 230 211 211 211 218 218 218 212 212 212 0 0 0 0 0 0 0 0 0 0 0 0 0 0 0 
0 0 0 0 0 0 0 0 0 0 0 0 207 207 207 214 214 214 223 223 223 208 208 208 226 226 226 223 223 223 224 224 224 208 208 208 209 209 209 233 233 233 226 226 226 205 205 205 209 209 209 219 219 219 233 233 233 226 226 226 236 236 236 239 239 239 228 228 228 214 214 214 224 224 224 213 213 213 207 207 207 225 225 225 232 232 232 233 233 233 239 239 239 214 214 214 218 218 218 228 228 228 210 210 210 224 224 224 226 226 226 213 213 213 216 216 216 218 218 218 235 235 235 214 214 214 209 209 209 214 214 214 233 233 233 0 0 0 0 0 0 0 0 0 220 220 220 222 222 222 209 209 209 223 223 223 219 219 219 203 203 203 204 204 204 206 206 206 227 227 227 225 225 225 207 207 207 0 0 0 0 0 0 0 0 0 0 0 0 0 0 0 
0 0 0 0 0 0 0 0 0 239 239 239 207 207 207 211 211 211 220 220 220 222 222 222 219 219 219 211 211 211 207 207 207 217 217 217 227 227 227 226 226 226 219 219 219 205 205 205 204 204 204 220 220 220 232 232 232 225 225 225 231 231 231 232 232 232 236 236 236 227 227 227 216 216 216 208 208 208 207 207 207 216 216 216 234 234 234 238 238 238 239 239 239 225 225 225 226 226 226 212 212 212 234 234 234 236 236 236 210 210 210 207 207 207 206 206 206 232 232 232 229 229 229 208 208 208 207 207 207 215 215 215 235 235 235 239 239 239 0 0 0 0 0 0 207 207 207 218 218 218 206 206 206 216 216 216 215 215 215 204 204 204 213 213 213 220 220 220 224 224 224 224 224 224 211 211 211 0 0 0 0 0 0 0 0 0 0 0 0 0 0 0 
0 0 0 0 0 0 0 0 0 207 207 207 214 214 214 209 209 209 226 226 226 230 230 230 231 231 231 222 222 222 206 206 206 207 207 207 218 218 218 215 215 215 216 216 216 209 209 209 213 213 213 210 210 210 216 216 216 220 220 220 235 235 235 212 212 212 222 222 222 207 207 207 217 217 217 226 226 226 212 212 212 209 209 209 214 214 214 215 215 215 212 212 212 212 212 212 219 219 219 206 206 206 213 213 213 232 232 232 218 218 218 221 221 221 230 230 230 233 233 233 225 225 225 211 211 211 209 209 209 218 218 218 239 239 239 234 234 234 0 0 0 0 0 0 204 204 204 210 210 210 208 208 208 207 207 207 223 223 223 211 211 211 223 223 223 237 237 237 210 210 210 211 211 211 217 217 217 239 239 239 0 0 0 0 0 0 0 0 0 0 0 0 
0 0 0 0 0 0 0 0 0 206 206 206 209 209 209 218 218 218 216 216 216 217 217 217 233 233 233 210 210 210 218 218 218 227 227 227 222 222 222 218 218 218 210 210 210 215 215 215 211 211 211 213 213 213 207 207 207 216 216 216 236 236 236 211 211 211 225 225 225 216 216 216 231 231 231 223 223 223 223 223 223 217 217 217 228 228 228 223 223 223 213 213 213 223 223 223 213 213 213 217 217 217 207 207 207 212 212 212 208 208 208 211 211 211 221 221 221 223 223 223 207 207 207 210 210 210 228 228 228 211 211 211 228 228 228 233 233 233 0 0 0 0 0 0 207 207 207 209 209 209 206 206 206 209 209 209 205 205 205 211 211 211 216 216 216 222 222 222 214 214 214 206 206 206 224 224 224 233 233 233 0 0 0 0 0 0 0 0 0 0 0 0 
0 0 0 0 0 0 0 0 0 214 214 214 212 212 212 211 211 211 218 218 218 221 221 221 227 227 227 215 215 215 226 226 226 237 237 237 225 225 225 210 210 210 203 203 203 206 206 206 204 204 204 213 213 213 212 212 212 213 213 213 211 211 211 209 209 209 220 220 220 210 210 210 210 210 210 227 227 227 237 237 237 235 235 235 218 218 218 236 236 236 223 223 223 212 212 212 212 212 212 221 221 221 208 208 208 212 212 212 215 215 215 213 213 213 211 211 211 226 226 226 224 224 224 225 225 225 238 238 238 217 217 217 210 210 210 233 233 233 232 232 232 0 0 0 204 204 204 206 206 206 206 206 206 209 209 209 214 214 214 234 234 234 218 218 218 218 218 218 224 224 224 233 233 233 237 237 237 237 237 237 0 0 0 0 0 0 0 0 0 0 0 0 
0 0 0 0 0 0 0 0 0 224 224 224 222 222 222 223 223 223 233 233 233 217 217 217 218 218 218 217 217 217 219 219 219 237 237 237 225 225 225 206 206 206 204 204 204 203 203 203 206 206 206 209 209 209 204 204 204 207 207 207 216 216 216 217 217 217 235 235 235 227 227 227 220 220 220 236 236 236 238 238 238 229 229 229 221 221 221 226 226 226 215 215 215 209 209 209 206 206 206 210 210 210 211 211 211 211 211 211 224 224 224 213 213 213 208 208 208 211 211 211 234 234 234 236 236 236 236 236 236 228 228 228 209 209 209 234 234 234 231 231 231 0 0 0 203 203 203 207 207 207 202 202 202 203 203 203 208 208 208 219 219 219 211 211 211 205 205 205 212 212 212 233 233 233 239 239 239 238 238 238 0 0 0 0 0 0 0 0 0 0 0 0 
0 0 0 0 0 0 0 0 0 216 216 216 218 218 218 216 216 216 228 228 228 217 217 217 223 223 223 226 226 226 230 230 230 233 233 233 206 206 206 219 219 219 207 207 207 214 214 214 207 207 207 208 208 208 205 205 205 206 206 206 211 211 211 219 219 219 231 231 231 234 234 234 210 210 210 234 234 234 225 225 225 211 211 211 212 212 212 215 215 215 219 219 219 221 221 221 213 213 213 216 216 216 223 223 223 212 212 212 213 213 213 211 211 211 208 208 208 211 211 211 218 218 218 238 238 238 238 238 238 214 214 214 212 212 212 229 229 229 234 234 234 0 0 0 211 211 211 217 217 217 212 212 212 220 220 220 206 206 206 214 214 214 230 230 230 213 213 213 230 230 230 219 219 219 234 234 234 232 232 232 0 0 0 0 0 0 0 0 0 0 0 0 
0 0 0 0 0 0 0 0 0 212 212 212 211 211 211 211 211 211 229 229 229 228 228 228 207 207 207 222 222 222 226 226 226 213 213 213 208 208 208 229 229 229 216 216 216 205 205 205 207 207 207 227 227 227 225 225 225 215 215 215 213 213 213 215 215 215 224 224 224 234 234 234 214 214 214 235 235 235 221 221 221 220 220 220 213 213 213 216 216 216 210 210 210 210 210 210 209 209 209 214 214 214 229 229 229 217 217 217 234 234 234 222 222 222 215 215 215 222 222 222 218 218 218 228 228 228 227 227 227 235 235 235 225 225 225 214 214 214 231 231 231 222 222 222 203 203 203 202 202 202 205 205 205 223 223 223 209 209 209 230 230 230 234 234 234 219 219 219 228 228 228 208 208 208 217 217 217 235 235 235 239 239 239 0 0 0 0 0 0 0 0 0 
0 0 0 0 0 0 224 224 224 216 216 216 217 217 217 210 210 210 231 231 231 233 233 233 214 214 214 212 212 212 217 217 217 208 208 208 216 216 216 223 223 223 213 213 213 201 201 201 219 219 219 214 214 214 215 215 215 208 208 208 209 209 209 209 209 209 230 230 230 237 237 237 216 216 216 220 220 220 222 222 222 234 234 234 229 229 229 233 233 233 213 213 213 219 219 219 209 209 209 210 210 210 208 208 208 208 208 208 212 212 212 215 215 215 216 216 216 228 228 228 215 215 215 213 213 213 231 231 231 238 238 238 233 233 233 219 219 219 229 229 229 219 219 219 202 202 202 212 212 212 203 203 203 203 203 203 211 211 211 206 206 206 219 219 219 226 226 226 215 215 215 209 209 209 213 213 213 233 233 233 237 237 237 0 0 0 0 0 0 0 0 0 
0 0 0 0 0 0 205 205 205 206 206 206 225 225 225 208 208 208 220 220 220 213 213 213 225 225 225 217 217 217 217 217 217 209 209 209 212 212 212 211 211 211 210 210 210 203 203 203 218 218 218 207 207 207 211 211 211 205 205 205 219 219 219 224 224 224 234 234 234 215 215 215 207 207 207 207 207 207 220 220 220 229 229 229 209 209 209 210 210 210 214 214 214 208 208 208 217 217 217 217 217 217 208 208 208 217 217 217 210 210 210 207 207 207 212 212 212 223 223 223 213 213 213 222 222 222 236 236 236 239 239 239 239 239 239 215 215 215 219 219 219 213 213 213 209 209 209 233 233 233 207 207 207 203 203 203 212 212 212 221 221 221 208 208 208 211 211 211 211 211 211 215 215 215 213 213 213 212 212 212 218 218 218 0 0 0 0 0 0 0 0 0 
0 0 0 0 0 0 206 206 206 219 219 219 224 224 224 214 214 214 226 226 226 228 228 228 213 213 213 215 215 215 218 218 218 208 208 208 208 208 208 221 221 221 216 216 216 204 204 204 204 204 204 203 203 203 212 212 212 206 206 206 206 206 206 209 209 209 219 219 219 224 224 224 229 229 229 224 224 224 233 233 233 213 213 213 206 206 206 215 215 215 215 215 215 208 208 208 227 227 227 220 220 220 208 208 208 207 207 207 208 208 208 210 210 210 211 211 211 207 207 207 209 209 209 222 222 222 230 230 230 235 235 235 228 228 228 208 208 208 222 222 222 206 206 206 227 227 227 227 227 227 206 206 206 201 201 201 209 209 209 223 223 223 213 213 213 205 205 205 207 207 207 211 211 211 216 216 216 208 208 208 209 209 209 0 0 0 0 0 0 0 0 0 
0 0 0 0 0 0 207 207 207 207 207 207 206 206 206 220 220 220 239 239 239 239 239 239 222 222 222 226 226 226 219 219 219 208 208 208 216 216 216 210 210 210 220 220 220 206 206 206 205 205 205 213 213 213 232 232 232 217 217 217 223 223 223 214 214 214 236 236 236 239 239 239 227 227 227 211 211 211 215 215 215 207 207 207 211 211 211 211 211 211 211 211 211 209 209 209 223 223 223 223 223 223 209 209 209 206 206 206 207 207 207 210 210 210 216 216 216 207 207 207 216 216 216 222 222 222 214 214 214 227 227 227 234 234 234 214 214 214 208 208 208 207 207 207 217 217 217 215 215 215 206 206 206 203 203 203 210 210 210 207 207 207 212 212 212 205 205 205 210 210 210 223 223 223 207 207 207 205 205 205 207 207 207 0 0 0 0 0 0 0 0 0 
0 0 0 0 0 0 210 210 210 211 211 211 205 205 205 230 230 230 234 234 234 213 213 213 214 214 214 213 213 213 223 223 223 212 212 212 208 208 208 206 206 206 205 205 205 219 219 219 213 213 213 208 208 208 223 223 223 207 207 207 227 227 227 215 215 215 210 210 210 235 235 235 213 213 213 212 212 212 208 208 208 216 216 216 221 221 221 219 219 219 208 208 208 208 208 208 214 214 214 217 217 217 211 211 211 211 211 211 211 211 211 217 217 217 213 213 213 210 210 210 230 230 230 219 219 219 209 209 209 227 227 227 239 239 239 216 216 216 208 208 208 204 204 204 211 211 211 239 239 239 0 0 0 0 0 0 208 208 208 206 206 206 229 229 229 213 213 213 214 214 214 219 219 219 210 210 210 213 213 213 209 209 209 0 0 0 0 0 0 0 0 0 
0 0 0 0 0 0 206 206 206 204 204 204 210 210 210 233 233 233 228 228 228 210 210 210 226 226 226 219 219 219 231 231 231 218 218 218 203 203 203 215 215 215 223 223 223 220 220 220 227 227 227 206 206 206 205 205 205 219 219 219 233 233 233 214 214 214 217 217 217 228 228 228 219 219 219 219 219 219 213 213 213 225 225 225 232 232 232 221 221 221 209 209 209 207 207 207 218 218 218 213 213 213 211 211 211 221 221 221 227 227 227 208 208 208 214 214 214 220 220 220 231 231 231 221 221 221 228 228 228 235 235 235 235 235 235 209 209 209 222 222 222 213 213 213 207 207 207 211 211 211 0 0 0 0 0 0 0 0 0 0 0 0 206 206 206 213 213 213 210 210 210 207 207 207 231 231 231 216 216 216 205 205 205 0 0 0 0 0 0 0 0 0 
0 0 0 230 230 230 214 214 214 211 211 211 214 214 214 225 225 225 206 206 206 219 219 219 229 229 229 235 235 235 236 236 236 221 221 221 208 208 208 208 208 208 213 213 213 211 211 211 215 215 215 221 221 221 207 207 207 226 226 226 217 217 217 219 219 219 221 221 221 227 227 227 217 217 217 211 211 211 219 219 219 237 237 237 221 221 221 235 235 235 230 230 230 215 215 215 236 236 236 219 219 219 209 209 209 227 227 227 231 231 231 210 210 210 211 211 211 222 222 222 223 223 223 233 233 233 219 219 219 213 213 213 219 219 219 210 210 210 218 218 218 225 225 225 209 209 209 211 211 211 0 0 0 0 0 0 0 0 0 0 0 0 208 208 208 206 206 206 203 203 203 205 205 205 219 219 219 206 206 206 204 204 204 212 212 212 0 0 0 0 0 0 
0 0 0 212 212 212 211 211 211 211 211 211 213 213 213 210 210 210 211 211 211 223 223 223 235 235 235 216 216 216 209 209 209 216 216 216 221 221 221 206 206 206 213 213 213 215 215 215 208 208 208 223 223 223 205 205 205 212 212 212 226 226 226 223 223 223 216 216 216 229 229 229 233 233 233 226 226 226 219 219 219 220 220 220 212 212 212 227 227 227 227 227 227 211 211 211 213 213 213 210 210 210 209 209 209 214 214 214 211 211 211 215 215 215 210 210 210 210 210 210 208 208 208 209 209 209 211 211 211 207 207 207 207 207 207 214 214 214 211 211 211 209 209 209 207 207 207 207 207 207 219 219 219 0 0 0 0 0 0 0 0 0 216 216 216 205 205 205 204 204 204 208 208 208 212 212 212 215 215 215 211 211 211 216 216 216 0 0 0 0 0 0 
0 0 0 206 206 206 207 207 207 209 209 209 226 226 226 237 237 237 233 233 233 234 234 234 226 226 226 211 211 211 230 230 230 237 237 237 225 225 225 223 223 223 221 221 221 207 207 207 210 210 210 210 210 210 206 206 206 221 221 221 222 222 222 223 223 223 208 208 208 215 215 215 225 225 225 217 217 217 211 211 211 233 233 233 232 232 232 233 233 233 223 223 223 224 224 224 210 210 210 213 213 213 209 209 209 208 208 208 208 208 208 214 214 214 213 213 213 211 211 211 228 228 228 213 213 213 212 212 212 208 208 208 208 208 208 214 214 214 213 213 213 206 206 206 205 205 205 215 215 215 224 224 224 0 0 0 0 0 0 0 0 0 205 205 205 204 204 204 206 206 206 206 206 206 222 222 222 210 210 210 214 214 214 217 217 217 0 0 0 0 0 0 
0 0 0 206 206 206 210 210 210 211 211 211 217 217 217 219 219 219 218 218 218 207 207 207 222 222 222 234 234 234 229 229 229 239 239 239 225 225 225 219 219 219 212 212 212 208 208 208 210 210 210 208 208 208 208 208 208 217 217 217 221 221 221 223 223 223 220 220 220 211 211 211 214 214 214 221 221 221 212 212 212 222 222 222 231 231 231 222 222 222 211 211 211 211 211 211 215 215 215 213 213 213 214 214 214 211 211 211 209 209 209 219 219 219 209 209 209 210 210 210 227 227 227 222 222 222 208 208 208 208 208 208 211 211 211 211 211 211 208 208 208 209 209 209 207 207 207 206 206 206 204 204 204 0 0 0 0 0 0 0 0 0 203 203 203 205 205 205 210 210 210 209 209 209 208 208 208 212 212 212 217 217 217 210 210 210 0 0 0 0 0 0 
0 0 0 206 206 206 227 227 227 226 226 226 220 220 220 227 227 227 214 214 214 207 207 207 211 211 211 233 233 233 233 233 233 221 221 221 208 208 208 221 221 221 209 209 209 214 214 214 210 210 210 209 209 209 222 222 222 236 236 236 217 217 217 212 212 212 237 237 237 223 223 223 215 215 215 222 222 222 221 221 221 209 209 209 220 220 220 219 219 219 209 209 209 213 213 213 224 224 224 214 214 214 211 211 211 223 223 223 217 217 217 214 214 214 208 208 208 211 211 211 209 209 209 205 205 205 220 220 220 230 230 230 207 207 207 212 212 212 207 207 207 210 210 210 206 206 206 208 208 208 212 212 212 227 227 227 0 0 0 0 0 0 212 212 212 217 217 217 233 233 233 226 226 226 210 210 210 213 213 213 211 211 211 206 206 206 0 0 0 0 0 0 
0 0 0 206 206 206 209 209 209 219 219 219 235 235 235 230 230 230 221 221 221 214 214 214 231 231 231 235 235 235 238 238 238 228 228 228 214 214 214 224 224 224 209 209 209 210 210 210 217 217 217 219 219 219 216 216 216 236 236 236 228 228 228 219 219 219 239 239 239 226 226 226 209 209 209 212 212 212 227 227 227 213 213 213 213 213 213 215 215 215 208 208 208 215 215 215 234 234 234 212 212 212 224 224 224 229 229 229 225 225 225 231 231 231 216 216 216 213 213 213 206 206 206 206 206 206 218 218 218 232 232 232 225 225 225 207 207 207 210 210 210 209 209 209 205 205 205 212 212 212 213 213 213 217 217 217 0 0 0 0 0 0 218 218 218 237 237 237 234 234 234 223 223 223 211 211 211 207 207 207 207 207 207 215 215 215 0 0 0 0 0 0 
223 223 223 210 210 210 211 211 211 214 214 214 227 227 227 237 237 237 238 238 238 238 238 238 236 236 236 225 225 225 219 219 219 233 233 233 232 232 232 233 233 233 218 218 218 223 223 223 228 228 228 218 218 218 220 220 220 213 213 213 225 225 225 217 217 217 218 218 218 212 212 212 207 207 207 213 213 213 225 225 225 215 215 215 207 207 207 206 206 206 207 207 207 210 210 210 215 215 215 223 223 223 227 227 227 225 225 225 217 217 217 221 221 221 209 209 209 227 227 227 234 234 234 210 210 210 206 206 206 210 210 210 209 209 209 207 207 207 211 211 211 210 210 210 202 202 202 210 210 210 212 212 212 221 221 221 239 239 239 0 0 0 207 207 207 227 227 227 238 238 238 218 218 218 219 219 219 208 208 208 211 211 211 216 216 216 0 0 0 0 0 0 
205 205 205 208 208 208 226 226 226 231 231 231 212 212 212 218 218 218 233 233 233 229 229 229 223 223 223 216 216 216 230 230 230 216 216 216 234 234 234 232 232 232 229 229 229 225 225 225 233 233 233 227 227 227 232 232 232 209 209 209 213 213 213 205 205 205 214 214 214 211 211 211 206 206 206 212 212 212 228 228 228 209 209 209 215 215 215 222 222 222 213 213 213 207 207 207 212 212 212 207 207 207 221 221 221 222 222 222 214 214 214 216 216 216 213 213 213 233 233 233 239 239 239 228 228 228 225 225 225 217 217 217 219 219 219 211 211 211 226 226 226 206 206 206 209 209 209 205 205 205 216 216 216 209 209 209 0 0 0 0 0 0 208 208 208 211 211 211 219 219 219 220 220 220 211 211 211 222 222 222 222 222 222 212 212 212 0 0 0 0 0 0 
227 227 227 225 225 225 223 223 223 216 216 216 220 220 220 214 214 214 226 226 226 226 226 226 224 224 224 233 233 233 230 230 230 236 236 236 236 236 236 226 226 226 223 223 223 227 227 227 220 220 220 213 213 213 226 226 226 207 207 207 209 209 209 213 213 213 209 209 209 211 211 211 211 211 211 210 210 210 216 216 216 206 206 206 208 208 208 220 220 220 210 210 210 207 207 207 210 210 210 214 214 214 212 212 212 210 210 210 209 209 209 216 216 216 208 208 208 211 211 211 227 227 227 231 231 231 225 225 225 205 205 205 239 239 239 0 0 0 0 0 0 0 0 0 0 0 0 0 0 0 0 0 0 0 0 0 0 0 0 0 0 0 204 204 204 211 211 211 221 221 221 224 224 224 227 227 227 224 224 224 216 216 216 209 209 209 0 0 0 0 0 0 
235 235 235 236 236 236 234 234 234 209 209 209 209 209 209 219 219 219 221 221 221 212 212 212 218 218 218 230 230 230 232 232 232 224 224 224 233 233 233 222 222 222 227 227 227 209 209 209 212 212 212 208 208 208 212 212 212 207 207 207 207 207 207 212 212 212 212 212 212 217 217 217 222 222 222 211 211 211 209 209 209 208 208 208 207 207 207 211 211 211 208 208 208 206 206 206 207 207 207 211 211 211 208 208 208 0 0 0 0 0 0 0 0 0 0 0 0 0 0 0 0 0 0 0 0 0 0 0 0 0 0 0 0 0 0 0 0 0 0 0 0 0 0 0 0 0 0 0 0 0 0 0 0 0 0 0 0 0 0 0 0 0 205 205 205 220 220 220 230 230 230 235 235 235 220 220 220 210 210 210 214 214 214 208 208 208 239 239 239 0 0 0 
219 219 219 220 220 220 235 235 235 218 218 218 225 225 225 233 233 233 218 218 218 214 214 214 219 219 219 233 233 233 237 237 237 231 231 231 230 230 230 232 232 232 220 220 220 209 209 209 215 215 215 210 210 210 209 209 209 208 208 208 212 212 212 207 207 207 214 214 214 225 225 225 214 214 214 209 209 209 0 0 0 0 0 0 0 0 0 0 0 0 0 0 0 0 0 0 0 0 0 0 0 0 0 0 0 0 0 0 0 0 0 0 0 0 0 0 0 0 0 0 0 0 0 0 0 0 0 0 0 0 0 0 0 0 0 0 0 0 0 0 0 0 0 0 0 0 0 0 0 0 0 0 0 0 0 0 0 0 0 0 0 0 207 207 207 211 211 211 216 216 216 222 222 222 227 227 227 208 208 208 206 206 206 215 215 215 239 239 239 0 0 0 
214 214 214 230 230 230 209 209 209 212 212 212 210 210 210 216 216 216 232 232 232 232 232 232 230 230 230 226 226 226 234 234 234 218 218 218 210 210 210 220 220 220 220 220 220 209 209 209 210 210 210 210 210 210 207 207 207 206 206 206 208 208 208 208 208 208 209 209 209 207 207 207 208 208 208 208 208 208 207 207 207 208 208 208 211 211 211 210 210 210 206 206 206 225 225 225 223 223 223 225 225 225 217 217 217 209 209 209 215 215 215 215 215 215 215 215 215 208 208 208 229 229 229 212 212 212 213 213 213 210 210 210 205 205 205 0 0 0 0 0 0 0 0 0 0 0 0 0 0 0 0 0 0 0 0 0 0 0 0 0 0 0 213 213 213 217 217 217 206 206 206 220 220 220 211 211 211 211 211 211 209 209 209 209 209 209 239 239 239 0 0 0 
209 209 209 228 228 228 225 225 225 213 213 213 206 206 206 210 210 210 214 214 214 209 209 209 210 210 210 217 217 217 208 208 208 206 206 206 213 213 213 210 210 210 216 216 216 208 208 208 214 214 214 215 215 215 211 211 211 211 211 211 214 214 214 216 216 216 207 207 207 216 216 216 213 213 213 212 212 212 211 211 211 213 213 213 209 209 209 210 210 210 209 209 209 221 221 221 215 215 215 214 214 214 207 207 207 208 208 208 207 207 207 219 219 219 220 220 220 206 206 206 212 212 212 212 212 212 215 215 215 209 209 209 205 205 205 205 205 205 207 207 207 206 206 206 207 207 207 208 208 208 218 218 218 211 211 211 0 0 0 0 0 0 216 216 216 210 210 210 206 206 206 211 211 211 218 218 218 212 212 212 217 217 217 224 224 224 227 227 227 0 0 0 
235 235 235 234 234 234 214 214 214 207 207 207 206 206 206 206 206 206 206 206 206 209 209 209 209 209 209 213 213 213 218 218 218 207 207 207 207 207 207 208 208 208 210 210 210 209 209 209 208 208 208 207 207 207 209 209 209 215 215 215 226 226 226 224 224 224 214 214 214 213 213 213 212 212 212 210 210 210 211 211 211 210 210 210 206 206 206 206 206 206 208 208 208 210 210 210 208 208 208 215 215 215 206 206 206 209 209 209 221 221 221 218 218 218 209 209 209 206 206 206 207 207 207 215 215 215 210 210 210 207 207 207 207 207 207 208 208 208 205 205 205 209 209 209 209 209 209 209 209 209 217 217 217 206 206 206 0 0 0 0 0 0 230 230 230 219 219 219 227 227 227 221 221 221 230 230 230 215 215 215 212 212 212 237 237 237 228 228 228 0 0 0 
235 235 235 222 222 222 206 206 206 208 208 208 212 212 212 218 218 218 214 214 214 211 211 211 208 208 208 227 227 227 229 229 229 210 210 210 207 207 207 207 207 207 206 206 206 211 211 211 209 209 209 205 205 205 209 209 209 217 217 217 220 220 220 233 233 233 224 224 224 207 207 207 217 217 217 223 223 223 218 218 218 206 206 206 210 210 210 212 212 212 206 206 206 207 207 207 211 211 211 216 216 216 209 209 209 215 215 215 211 211 211 218 218 218 226 226 226 224 224 224 223 223 223 229 229 229 210 210 210 208 208 208 213 213 213 212 212 212 207 207 207 206 206 206 0 0 0 0 0 0 0 0 0 0 0 0 0 0 0 0 0 0 215 215 215 213 213 213 216 216 216 205 205 205 215 215 215 205 205 205 210 210 210 230 230 230 219 219 219 0 0 0 
230 230 230 208 208 208 208 208 208 216 216 216 233 233 233 219 219 219 214 214 214 227 227 227 215 215 215 212 212 212 219 219 219 223 223 223 209 209 209 206 206 206 205 205 205 203 203 203 208 208 208 212 212 212 219 219 219 222 222 222 210 210 210 216 216 216 226 226 226 222 222 222 0 0 0 0 0 0 0 0 0 0 0 0 0 0 0 0 0 0 0 0 0 0 0 0 0 0 0 0 0 0 0 0 0 0 0 0 0 0 0 0 0 0 0 0 0 0 0 0 0 0 0 0 0 0 0 0 0 0 0 0 0 0 0 0 0 0 0 0 0 0 0 0 0 0 0 0 0 0 0 0 0 0 0 0 0 0 0 0 0 0 211 211 211 223 223 223 213 213 213 209 209 209 218 218 218 218 218 218 222 222 222 213 213 213 209 209 209 0 0 0 
203 203 203 203 203 203 207 207 207 204 204 204 215 215 215 218 218 218 226 226 226 237 237 237 230 230 230 209 209 209 223 223 223 230 230 230 209 209 209 218 218 218 205 205 205 207 207 207 210 210 210 224 224 224 227 227 227 217 217 217 211 211 211 212 212 212 233 233 233 222 222 222 209 209 209 216 216 216 214 214 214 205 205 205 214 214 214 208 208 208 209 209 209 213 213 213 207 207 207 0 0 0 0 0 0 0 0 0 0 0 0 0 0 0 0 0 0 0 0 0 0 0 0 0 0 0 0 0 0 0 0 0 0 0 0 0 0 0 0 0 0 0 0 0 0 0 0 0 0 0 0 0 0 0 0 0 0 0 0 0 0 0 218 218 218 227 227 227 214 214 214 215 215 215 236 236 236 233 233 233 219 219 219 204 204 204 201 201 201 0 0 0 
214 214 214 213 213 213 217 217 217 204 204 204 203 203 203 204 204 204 217 217 217 231 231 231 225 225 225 219 219 219 218 218 218 236 236 236 209 209 209 214 214 214 210 210 210 218 218 218 210 210 210 213 213 213 215 215 215 208 208 208 210 210 210 208 208 208 221 221 221 223 223 223 218 218 218 217 217 217 210 210 210 209 209 209 225 225 225 227 227 227 215 215 215 211 211 211 211 211 211 209 209 209 220 220 220 214 214 214 208 208 208 211 211 211 231 231 231 216 216 216 220 220 220 221 221 221 239 239 239 0 0 0 0 0 0 0 0 0 0 0 0 0 0 0 0 0 0 0 0 0 0 0 0 0 0 0 0 0 0 0 0 0 215 215 215 223 223 223 210 210 210 207 207 207 214 214 214 222 222 222 227 227 227 222 222 222 204 204 204 0 0 0 
226 226 226 207 207 207 218 218 218 218 218 218 206 206 206 203 203 203 218 218 218 216 216 216 225 225 225 218 218 218 210 210 210 233 233 233 210 210 210 225 225 225 217 217 217 215 215 215 210 210 210 213 213 213 212 212 212 209 209 209 208 208 208 210 210 210 214 214 214 210 210 210 210 210 210 218 218 218 212 212 212 215 215 215 215 215 215 214 214 214 211 211 211 207 207 207 224 224 224 207 207 207 210 210 210 211 211 211 220 220 220 216 216 216 233 233 233 218 218 218 213 213 213 223 223 223 230 230 230 219 219 219 224 224 224 224 224 224 210 210 210 230 230 230 212 212 212 210 210 210 220 220 220 227 227 227 0 0 0 0 0 0 222 222 222 231 231 231 219 219 219 213 213 213 219 219 219 206 206 206 208 208 208 222 222 222 216 216 216 0 0 0 
0 0 0 203 203 203 222 222 222 236 236 236 225 225 225 214 214 214 218 218 218 224 224 224 225 225 225 208 208 208 206 206 206 209 209 209 210 210 210 209 209 209 209 209 209 216 216 216 211 211 211 207 207 207 209 209 209 213 213 213 212 212 212 210 210 210 209 209 209 227 227 227 207 207 207 225 225 225 226 226 226 220 220 220 227 227 227 220 220 220 221 221 221 207 207 207 210 210 210 206 206 206 207 207 207 220 220 220 222 222 222 209 209 209 228 228 228 228 228 228 224 224 224 217 217 217 217 217 217 213 213 213 215 215 215 217 217 217 209 209 209 210 210 210 204 204 204 210 210 210 216 216 216 224 224 224 239 239 239 0 0 0 222 222 222 231 231 231 222 222 222 220 220 220 227 227 227 218 218 218 205 205 205 222 222 222 233 233 233 0 0 0 
0 0 0 203 203 203 217 217 217 232 232 232 231 231 231 228 228 228 224 224 224 220 220 220 228 228 228 216 216 216 206 206 206 208 208 208 217 217 217 205 205 205 206 206 206 207 207 207 209 209 209 212 212 212 213 213 213 215 215 215 207 207 207 221 221 221 223 223 223 217 217 217 206 206 206 218 218 218 218 218 218 212 212 212 224 224 224 217 217 217 209 209 209 222 222 222 206 206 206 209 209 209 210 210 210 209 209 209 214 214 214 206 206 206 209 209 209 216 216 216 213 213 213 210 210 210 222 222 222 226 226 226 212 212 212 219 219 219 225 225 225 208 208 208 222 222 222 219 219 219 209 209 209 206 206 206 0 0 0 0 0 0 205 205 205 211 211 211 236 236 236 227 227 227 216 216 216 217 217 217 208 208 208 217 217 217 236 236 236 0 0 0 
0 0 0 217 217 217 211 211 211 223 223 223 211 211 211 217 217 217 214 214 214 233 233 233 209 209 209 203 203 203 213 213 213 220 220 220 214 214 214 225 225 225 210 210 210 206 206 206 208 208 208 205 205 205 212 212 212 216 216 216 207 207 207 224 224 224 221 221 221 212 212 212 217 217 217 223 223 223 235 235 235 213 213 213 208 208 208 209 209 209 216 216 216 223 223 223 223 223 223 205 205 205 211 211 211 217 217 217 232 232 232 225 225 225 208 208 208 206 206 206 217 217 217 213 213 213 222 222 222 221 221 221 209 209 209 206 206 206 218 218 218 221 221 221 221 221 221 211 211 211 213 213 213 223 223 223 0 0 0 0 0 0 206 206 206 209 209 209 217 217 217 221 221 221 218 218 218 215 215 215 212 212 212 232 232 232 231 231 231 0 0 0 
0 0 0 215 215 215 215 215 215 224 224 224 221 221 221 207 207 207 211 211 211 223 223 223 223 223 223 203 203 203 212 212 212 209 209 209 219 219 219 234 234 234 213 213 213 205 205 205 205 205 205 211 211 211 218 218 218 210 210 210 208 208 208 211 211 211 207 207 207 209 209 209 228 228 228 231 231 231 238 238 238 214 214 214 213 213 213 216 216 216 222 222 222 210 210 210 213 213 213 205 205 205 208 208 208 210 210 210 221 221 221 239 239 239 222 222 222 213 213 213 237 237 237 227 227 227 214 214 214 216 216 216 214 214 214 208 208 208 231 231 231 228 228 228 209 209 209 210 210 210 230 230 230 239 239 239 0 0 0 0 0 0 206 206 206 209 209 209 222 222 222 224 224 224 223 223 223 228 228 228 233 233 233 230 230 230 225 225 225 0 0 0 
0 0 0 229 229 229 223 223 223 226 226 226 204 204 204 206 206 206 203 203 203 223 223 223 223 223 223 223 223 223 226 226 226 205 205 205 205 205 205 213 213 213 222 222 222 210 210 210 211 211 211 228 228 228 226 226 226 212 212 212 211 211 211 207 207 207 206 206 206 224 224 224 228 228 228 230 230 230 225 225 225 211 211 211 214 214 214 208 208 208 213 213 213 211 211 211 217 217 217 211 211 211 208 208 208 226 226 226 217 217 217 225 225 225 221 221 221 225 225 225 219 219 219 235 235 235 227 227 227 220 220 220 233 233 233 217 217 217 223 223 223 206 206 206 206 206 206 211 211 211 206 206 206 0 0 0 0 0 0 0 0 0 213 213 213 208 208 208 210 210 210 206 206 206 218 218 218 212 212 212 214 214 214 218 218 218 224 224 224 0 0 0 
0 0 0 222 222 222 231 231 231 213 213 213 209 209 209 223 223 223 203 203 203 201 201 201 217 217 217 235 235 235 234 234 234 214 214 214 221 221 221 213 213 213 206 206 206 218 218 218 224 224 224 209 209 209 207 207 207 206 206 206 212 212 212 221 221 221 208 208 208 231 231 231 232 232 232 207 207 207 218 218 218 233 233 233 229 229 229 220 220 220 231 231 231 226 226 226 237 237 237 213 213 213 209 209 209 227 227 227 229 229 229 217 217 217 226 226 226 211 211 211 223 223 223 229 229 229 235 235 235 214 214 214 211 211 211 223 223 223 207 207 207 203 203 203 204 204 204 221 221 221 213 213 213 0 0 0 0 0 0 0 0 0 212 212 212 205 205 205 204 204 204 203 203 203 208 208 208 227 227 227 215 215 215 206 206 206 217 217 217 0 0 0 
0 0 0 0 0 0 203 203 203 209 209 209 215 215 215 227 227 227 208 208 208 210 210 210 212 212 212 223 223 223 217 217 217 212 212 212 224 224 224 219 219 219 206 206 206 213 213 213 219 219 219 214 214 214 216 216 216 208 208 208 214 214 214 224 224 224 209 209 209 215 215 215 227 227 227 222 222 222 238 238 238 236 236 236 235 235 235 237 237 237 216 216 216 232 232 232 220 220 220 207 207 207 214 214 214 225 225 225 224 224 224 230 230 230 230 230 230 225 225 225 211 211 211 208 208 208 234 234 234 229 229 229 209 209 209 208 208 208 206 206 206 217 217 217 228 228 228 219 219 219 0 0 0 0 0 0 0 0 0 0 0 0 211 211 211 205 205 205 203 203 203 201 201 201 212 212 212 229 229 229 225 225 225 209 209 209 207 207 207 0 0 0 
0 0 0 0 0 0 204 204 204 207 207 207 217 217 217 225 225 225 221 221 221 218 218 218 209 209 209 206 206 206 207 207 207 205 205 205 205 205 205 222 222 222 208 208 208 206 206 206 206 206 206 209 209 209 212 212 212 206 206 206 207 207 207 208 208 208 207 207 207 207 207 207 219 219 219 228 228 228 230 230 230 220 220 220 208 208 208 234 234 234 209 209 209 210 210 210 203 203 203 219 219 219 219 219 219 235 235 235 231 231 231 236 236 236 239 239 239 229 229 229 213 213 213 229 229 229 232 232 232 231 231 231 212 212 212 203 203 203 207 207 207 220 220 220 226 226 226 231 231 231 0 0 0 0 0 0 0 0 0 0 0 0 210 210 210 206 206 206 205 205 205 210 210 210 203 203 203 218 218 218 214 214 214 222 222 222 220 220 220 239 239 239 
0 0 0 0 0 0 197 197 197 201 201 201 221 221 221 208 208 208 209 209 209 206 206 206 202 202 202 203 203 203 208 208 208 205 205 205 204 204 204 219 219 219 217 217 217 205 205 205 219 219 219 213 213 213 211 211 211 209 209 209 211 211 211 207 207 207 210 210 210 208 208 208 226 226 226 232 232 232 234 234 234 219 219 219 209 209 209 214 214 214 205 205 205 209 209 209 213 213 213 231 231 231 235 235 235 227 227 227 233 233 233 232 232 232 239 239 239 218 218 218 216 216 216 229 229 229 209 209 209 212 212 212 206 206 206 219 219 219 217 217 217 206 206 206 210 210 210 221 221 221 0 0 0 0 0 0 0 0 0 0 0 0 223 223 223 218 218 218 221 221 221 224 224 224 210 210 210 225 225 225 211 211 211 226 226 226 214 214 214 239 239 239 
0 0 0 0 0 0 197 197 197 208 208 208 220 220 220 216 216 216 208 208 208 200 200 200 206 206 206 225 225 225 207 207 207 204 204 204 215 215 215 206 206 206 204 204 204 206 206 206 211 211 211 213 213 213 206 206 206 206 206 206 205 205 205 209 209 209 223 223 223 223 223 223 231 231 231 226 226 226 235 235 235 238 238 238 220 220 220 226 226 226 207 207 207 203 203 203 216 216 216 236 236 236 236 236 236 228 228 228 228 228 228 238 238 238 238 238 238 227 227 227 235 235 235 237 237 237 217 217 217 213 213 213 224 224 224 223 223 223 231 231 231 209 209 209 206 206 206 0 0 0 0 0 0 0 0 0 0 0 0 0 0 0 212 212 212 235 235 235 232 232 232 221 221 221 220 220 220 228 228 228 213 213 213 227 227 227 212 212 212 239 239 239 
0 0 0 0 0 0 209 209 209 214 214 214 212 212 212 213 213 213 202 202 202 207 207 207 203 203 203 217 217 217 221 221 221 226 226 226 211 211 211 204 204 204 205 205 205 221 221 221 219 219 219 223 223 223 216 216 216 207 207 207 207 207 207 216 216 216 229 229 229 227 227 227 225 225 225 211 211 211 218 218 218 217 217 217 232 232 232 234 234 234 227 227 227 221 221 221 231 231 231 224 224 224 236 236 236 234 234 234 231 231 231 236 236 236 232 232 232 207 207 207 214 214 214 227 227 227 208 208 208 217 217 217 215 215 215 209 209 209 227 227 227 229 229 229 221 221 221 0 0 0 0 0 0 0 0 0 0 0 0 0 0 0 203 203 203 230 230 230 230 230 230 227 227 227 209 209 209 207 207 207 224 224 224 231 231 231 219 219 219 239 239 239 
0 0 0 0 0 0 209 209 209 222 222 222 225 225 225 207 207 207 205 205 205 210 210 210 206 206 206 204 204 204 205 205 205 221 221 221 226 226 226 204 204 204 203 203 203 204 204 204 202 202 202 205 205 205 207 207 207 207 207 207 205 205 205 212 212 212 221 221 221 221 221 221 219 219 219 228 228 228 234 234 234 229 229 229 236 236 236 236 236 236 236 236 236 230 230 230 238 238 238 235 235 235 238 238 238 232 232 232 229 229 229 232 232 232 236 236 236 218 218 218 231 231 231 221 221 221 209 209 209 208 208 208 213 213 213 208 208 208 231 231 231 238 238 238 234 234 234 0 0 0 0 0 0 0 0 0 0 0 0 0 0 0 202 202 202 208 208 208 216 216 216 206 206 206 206 206 206 216 216 216 218 218 218 228 228 228 230 230 230 0 0 0 
0 0 0 0 0 0 0 0 0 220 220 220 220 220 220 204 204 204 206 206 206 208 208 208 208 208 208 212 212 212 208 208 208 205 205 205 208 208 208 215 215 215 211 211 211 207 207 207 205 205 205 210 210 210 216 216 216 206 206 206 210 210 210 226 226 226 221 221 221 234 234 234 235 235 235 234 234 234 230 230 230 237 237 237 231 231 231 216 216 216 226 226 226 225 225 225 235 235 235 232 232 232 238 238 238 222 222 222 225 225 225 228 228 228 238 238 238 237 237 237 238 238 238 222 222 222 211 211 211 210 210 210 206 206 206 211 211 211 216 216 216 236 236 236 0 0 0 0 0 0 0 0 0 0 0 0 0 0 0 0 0 0 0 0 0 209 209 209 209 209 209 221 221 221 209 209 209 222 222 222 218 218 218 207 207 207 206 206 206 0 0 0 
0 0 0 0 0 0 0 0 0 219 219 219 205 205 205 204 204 204 204 204 204 213 213 213 210 210 210 214 214 214 208 208 208 210 210 210 205 205 205 211 211 211 209 209 209 215 215 215 210 210 210 208 208 208 206 206 206 217 217 217 220 220 220 216 216 216 215 215 215 236 236 236 219 219 219 220 220 220 214 214 214 218 218 218 212 212 212 221 221 221 222 222 222 214 214 214 234 234 234 231 231 231 237 237 237 220 220 220 237 237 237 227 227 227 235 235 235 233 233 233 223 223 223 207 207 207 204 204 204 205 205 205 208 208 208 216 216 216 222 222 222 225 225 225 0 0 0 0 0 0 0 0 0 0 0 0 0 0 0 0 0 0 0 0 0 215 215 215 222 222 222 231 231 231 218 218 218 214 214 214 206 206 206 205 205 205 212 212 212 0 0 0 
0 0 0 0 0 0 0 0 0 215 215 215 207 207 207 209 209 209 215 215 215 219 219 219 219 219 219 220 220 220 206 206 206 206 206 206 204 204 204 204 204 204 203 203 203 213 213 213 216 216 216 206 206 206 205 205 205 217 217 217 207 207 207 207 207 207 208 208 208 209 209 209 205 205 205 204 204 204 213 213 213 214 214 214 210 210 210 208 208 208 206 206 206 217 217 217 213 213 213 208 208 208 228 228 228 233 233 233 238 238 238 238 238 238 236 236 236 219 219 219 228 228 228 229 229 229 206 206 206 206 206 206 208 208 208 232 232 232 236 236 236 239 239 239 0 0 0 0 0 0 0 0 0 0 0 0 0 0 0 0 0 0 0 0 0 204 204 204 206 206 206 222 222 222 219 219 219 211 211 211 205 205 205 227 227 227 239 239 239 0 0 0 
0 0 0 0 0 0 0 0 0 205 205 205 217 217 217 214 214 214 213 213 213 213 213 213 223 223 223 234 234 234 206 206 206 204 204 204 215 215 215 208 208 208 213 213 213 211 211 211 214 214 214 217 217 217 209 209 209 207 207 207 206 206 206 208 208 208 207 207 207 214 214 214 205 205 205 204 204 204 231 231 231 222 222 222 212 212 212 207 207 207 206 206 206 203 203 203 222 222 222 216 216 216 208 208 208 211 211 211 217 217 217 225 225 225 232 232 232 219 219 219 217 217 217 235 235 235 225 225 225 215 215 215 215 215 215 237 237 237 234 234 234 0 0 0 0 0 0 0 0 0 0 0 0 0 0 0 0 0 0 0 0 0 0 0 0 0 0 0 216 216 216 214 214 214 216 216 216 206 206 206 215 215 215 220 220 220 0 0 0 0 0 0 
0 0 0 0 0 0 0 0 0 205 205 205 211 211 211 214 214 214 206 206 206 209 209 209 217 217 217 211 211 211 206 206 206 205 205 205 207 207 207 218 218 218 210 210 210 207 207 207 218 218 218 224 224 224 209 209 209 205 205 205 214 214 214 228 228 228 218 218 218 207 207 207 209 209 209 206 206 206 218 218 218 231 231 231 223 223 223 207 207 207 205 205 205 209 209 209 232 232 232 214 214 214 205 205 205 207 207 207 209 209 209 219 219 219 225 225 225 238 238 238 222 222 222 239 239 239 222 222 222 207 207 207 219 219 219 223 223 223 224 224 224 0 0 0 0 0 0 0 0 0 0 0 0 0 0 0 0 0 0 0 0 0 0 0 0 0 0 0 223 223 223 227 227 227 213 213 213 226 226 226 213 213 213 220 220 220 0 0 0 0 0 0 
0 0 0 0 0 0 0 0 0 216 216 216 228 228 228 222 222 222 218 218 218 214 214 214 227 227 227 226 226 226 211 211 211 209 209 209 209 209 209 211 211 211 208 208 208 212 212 212 221 221 221 210 210 210 204 204 204 203 203 203 219 219 219 220 220 220 224 224 224 217 217 217 225 225 225 222 222 222 206 206 206 210 210 210 228 228 228 210 210 210 212 212 212 202 202 202 210 210 210 217 217 217 222 222 222 215 215 215 232 232 232 226 226 226 215 215 215 233 233 233 236 236 236 237 237 237 224 224 224 212 212 212 208 208 208 222 222 222 0 0 0 0 0 0 0 0 0 0 0 0 0 0 0 0 0 0 0 0 0 0 0 0 0 0 0 0 0 0 206 206 206 216 216 216 205 205 205 216 216 216 225 225 225 222 222 222 0 0 0 0 0 0 
0 0 0 0 0 0 0 0 0 239 239 239 232 232 232 228 228 228 214 214 214 205 205 205 206 206 206 217 217 217 212 212 212 209 209 209 217 217 217 220 220 220 211 211 211 219 219 219 227 227 227 205 205 205 204 204 204 208 208 208 208 208 208 209 209 209 208 208 208 211 211 211 231 231 231 221 221 221 210 210 210 208 208 208 232 232 232 225 225 225 211 211 211 209 209 209 228 228 228 216 216 216 228 228 228 228 228 228 220 220 220 218 218 218 210 210 210 231 231 231 227 227 227 210 210 210 217 217 217 213 213 213 206 206 206 219 219 219 0 0 0 0 0 0 0 0 0 0 0 0 0 0 0 0 0 0 0 0 0 0 0 0 0 0 0 0 0 0 206 206 206 225 225 225 208 208 208 206 206 206 210 210 210 239 239 239 0 0 0 0 0 0 
0 0 0 0 0 0 0 0 0 0 0 0 234 234 234 232 232 232 217 217 217 210 210 210 215 215 215 208 208 208 212 212 212 211 211 211 208 208 208 229 229 229 212 212 212 219 219 219 220 220 220 216 216 216 214 214 214 209 209 209 208 208 208 206 206 206 207 207 207 215 215 215 220 220 220 216 216 216 218 218 218 209 209 209 232 232 232 234 234 234 219 219 219 215 215 215 232 232 232 217 217 217 223 223 223 223 223 223 205 205 205 221 221 221 216 216 216 220 220 220 213 213 213 219 219 219 226 226 226 212 212 212 206 206 206 215 215 215 0 0 0 0 0 0 0 0 0 0 0 0 0 0 0 0 0 0 0 0 0 0 0 0 0 0 0 0 0 0 0 0 0 209 209 209 209 209 209 209 209 209 217 217 217 0 0 0 0 0 0 0 0 0 
0 0 0 0 0 0 0 0 0 0 0 0 219 219 219 220 220 220 218 218 218 213 213 213 208 208 208 212 212 212 213 213 213 226 226 226 215 215 215 224 224 224 210 210 210 211 211 211 207 207 207 220 220 220 211 211 211 208 208 208 210 210 210 218 218 218 207 207 207 216 216 216 220 220 220 215 215 215 209 209 209 208 208 208 222 222 222 221 221 221 228 228 228 214 214 214 216 216 216 216 216 216 218 218 218 230 230 230 213 213 213 206 206 206 221 221 221 214 214 214 208 208 208 222 222 222 210 210 210 209 209 209 206 206 206 0 0 0 0 0 0 0 0 0 0 0 0 0 0 0 0 0 0 0 0 0 0 0 0 0 0 0 0 0 0 0 0 0 0 0 0 206 206 206 207 207 207 221 221 221 210 210 210 0 0 0 0 0 0 0 0 0 
0 0 0 0 0 0 0 0 0 0 0 0 216 216 216 221 221 221 211 211 211 210 210 210 222 222 222 235 235 235 219 219 219 212 212 212 207 207 207 208 208 208 214 214 214 206 206 206 206 206 206 215 215 215 209 209 209 215 215 215 208 208 208 215 215 215 215 215 215 217 217 217 231 231 231 231 231 231 217 217 217 209 209 209 206 206 206 211 211 211 208 208 208 204 204 204 213 213 213 221 221 221 225 225 225 230 230 230 215 215 215 213 213 213 220 220 220 208 208 208 210 210 210 221 221 221 209 209 209 208 208 208 207 207 207 0 0 0 0 0 0 0 0 0 0 0 0 0 0 0 0 0 0 0 0 0 0 0 0 0 0 0 0 0 0 0 0 0 0 0 0 206 206 206 212 212 212 216 216 216 212 212 212 0 0 0 0 0 0 0 0 0 
0 0 0 0 0 0 0 0 0 0 0 0 221 221 221 216 216 216 218 218 218 225 225 225 217 217 217 221 221 221 209 209 209 210 210 210 215 215 215 222 222 222 221 221 221 206 206 206 206 206 206 206 206 206 208 208 208 207 207 207 217 217 217 211 211 211 216 216 216 212 212 212 234 234 234 221 221 221 210 210 210 217 217 217 213 213 213 208 208 208 206 206 206 206 206 206 223 223 223 228 228 228 211 211 211 206 206 206 209 209 209 208 208 208 212 212 212 213 213 213 210 210 210 208 208 208 209 209 209 206 206 206 207 207 207 0 0 0 0 0 0 0 0 0 0 0 0 0 0 0 0 0 0 0 0 0 0 0 0 0 0 0 0 0 0 0 0 0 0 0 0 0 0 0 208 208 208 210 210 210 239 239 239 0 0 0 0 0 0 0 0 0 
0 0 0 0 0 0 0 0 0 0 0 0 208 208 208 208 208 208 229 229 229 227 227 227 219 219 219 210 210 210 213 213 213 218 218 218 233 233 233 229 229 229 209 209 209 204 204 204 205 205 205 204 204 204 206 206 206 213 213 213 221 221 221 210 210 210 215 215 215 208 208 208 231 231 231 225 225 225 208 208 208 228 228 228 213 213 213 211 211 211 228 228 228 218 218 218 224 224 224 208 208 208 206 206 206 208 208 208 206 206 206 205 205 205 211 211 211 210 210 210 214 214 214 232 232 232 225 225 225 211 211 211 0 0 0 0 0 0 0 0 0 0 0 0 0 0 0 0 0 0 0 0 0 0 0 0 0 0 0 0 0 0 0 0 0 0 0 0 0 0 0 0 0 0 216 216 216 219 219 219 0 0 0 0 0 0 0 0 0 0 0 0 
0 0 0 0 0 0 0 0 0 0 0 0 0 0 0 0 0 0 0 0 0 0 0 0 0 0 0 0 0 0 207 207 207 221 221 221 220 220 220 222 222 222 208 208 208 204 204 204 204 204 204 203 203 203 212 212 212 228 228 228 227 227 227 210 210 210 206 206 206 215 215 215 224 224 224 237 237 237 219 219 219 231 231 231 207 207 207 207 207 207 218 218 218 212 212 212 214 214 214 204 204 204 206 206 206 214 214 214 215 215 215 211 211 211 214 214 214 207 207 207 208 208 208 212 212 212 222 222 222 214 214 214 0 0 0 0 0 0 0 0 0 0 0 0 0 0 0 0 0 0 0 0 0 0 0 0 0 0 0 0 0 0 0 0 0 0 0 0 0 0 0 0 0 0 207 207 207 210 210 210 0 0 0 0 0 0 0 0 0 0 0 0 
0 0 0 0 0 0 0 0 0 0 0 0 0 0 0 0 0 0 0 0 0 0 0 0 0 0 0 0 0 0 0 0 0 0 0 0 0 0 0 0 0 0 0 0 0 0 0 0 0 0 0 0 0 0 0 0 0 0 0 0 0 0 0 0 0 0 0 0 0 0 0 0 0 0 0 0 0 0 0 0 0 217 217 217 212 212 212 208 208 208 218 218 218 225 225 225 210 210 210 209 209 209 222 222 222 226 226 226 202 202 202 204 204 204 209 209 209 208 208 208 222 222 222 208 208 208 212 212 212 0 0 0 0 0 0 0 0 0 0 0 0 0 0 0 0 0 0 0 0 0 0 0 0 0 0 0 0 0 0 0 0 0 0 0 0 0 0 0 0 0 0 0 0 0 0 0 0 0 0 0 0 0 0 0 0 0 0 0 0 0 0 0 
